<svg xmlns="http://www.w3.org/2000/svg" xmlns:xlink="http://www.w3.org/1999/xlink" width="800" zoomAndPan="magnify" viewBox="0 0 600 599.999999" height="800" preserveAspectRatio="xMidYMid meet" version="1.0"><defs><clipPath id="a751fe0e1e"><path d="M 0 50 L 573 50 L 573 589 L 0 589 Z M 0 50 " clip-rule="nonzero"/></clipPath><clipPath id="57256c7484"><path d="M 23.28125 599.996094 L -11.992188 77.6875 L 552.96875 39.535156 L 588.242188 561.84375 Z M 23.28125 599.996094 " clip-rule="nonzero"/></clipPath><clipPath id="544cdbb5aa"><path d="M 23.28125 599.996094 L -11.992188 77.6875 L 552.96875 39.535156 L 588.242188 561.84375 Z M 23.28125 599.996094 " clip-rule="nonzero"/></clipPath><clipPath id="62fb8dfe68"><path d="M 23.28125 599.996094 L -11.992188 77.6875 L 552.96875 39.535156 L 588.242188 561.84375 Z M 23.28125 599.996094 " clip-rule="nonzero"/></clipPath><clipPath id="bd891a8f91"><path d="M 63 201 L 534 201 L 534 555 L 63 555 Z M 63 201 " clip-rule="nonzero"/></clipPath><clipPath id="69354de0dd"><path d="M 23.28125 599.996094 L -11.992188 77.6875 L 552.96875 39.535156 L 588.242188 561.84375 Z M 23.28125 599.996094 " clip-rule="nonzero"/></clipPath><clipPath id="a0c7058192"><path d="M 23.28125 599.996094 L -11.992188 77.6875 L 552.96875 39.535156 L 588.242188 561.84375 Z M 23.28125 599.996094 " clip-rule="nonzero"/></clipPath><clipPath id="b67c0f4dc7"><path d="M 23.28125 599.996094 L -11.992188 77.6875 L 552.96875 39.535156 L 588.242188 561.84375 Z M 23.28125 599.996094 " clip-rule="nonzero"/></clipPath><clipPath id="2fb82589f9"><path d="M 36 104 L 534 104 L 534 308 L 36 308 Z M 36 104 " clip-rule="nonzero"/></clipPath><clipPath id="540a3eb2e5"><path d="M 23.28125 599.996094 L -11.992188 77.6875 L 552.96875 39.535156 L 588.242188 561.84375 Z M 23.28125 599.996094 " clip-rule="nonzero"/></clipPath><clipPath id="0725577f01"><path d="M 23.28125 599.996094 L -11.992188 77.6875 L 552.96875 39.535156 L 588.242188 561.84375 Z M 23.28125 599.996094 " clip-rule="nonzero"/></clipPath><clipPath id="079b05f189"><path d="M 23.28125 599.996094 L -11.992188 77.6875 L 552.96875 39.535156 L 588.242188 561.84375 Z M 23.28125 599.996094 " clip-rule="nonzero"/></clipPath><clipPath id="63b50cad69"><path d="M 45 123 L 540 123 L 540 468 L 45 468 Z M 45 123 " clip-rule="nonzero"/></clipPath><clipPath id="7a881528a5"><path d="M 23.28125 599.996094 L -11.992188 77.6875 L 552.96875 39.535156 L 588.242188 561.84375 Z M 23.28125 599.996094 " clip-rule="nonzero"/></clipPath><clipPath id="c28f76e072"><path d="M 23.28125 599.996094 L -11.992188 77.6875 L 552.96875 39.535156 L 588.242188 561.84375 Z M 23.28125 599.996094 " clip-rule="nonzero"/></clipPath><clipPath id="9273be66de"><path d="M 23.28125 599.996094 L -11.992188 77.6875 L 552.96875 39.535156 L 588.242188 561.84375 Z M 23.28125 599.996094 " clip-rule="nonzero"/></clipPath><clipPath id="6c4809fa3a"><path d="M 0 24 L 575.25 24 L 575.25 587.355469 L 0 587.355469 Z M 0 24 " clip-rule="nonzero"/></clipPath><clipPath id="7af0d07b51"><path d="M 0 15 L 575.25 15 L 575.25 579 L 0 579 Z M 0 15 " clip-rule="nonzero"/></clipPath><clipPath id="ff7f679466"><path d="M 167.226562 217.203125 L 217.722656 217.203125 L 217.722656 318.300781 L 167.226562 318.300781 Z M 167.226562 217.203125 " clip-rule="nonzero"/></clipPath><clipPath id="093fcbc455"><path d="M 167.226562 227 L 217.722656 227 L 217.722656 285 L 167.226562 285 Z M 167.226562 227 " clip-rule="nonzero"/></clipPath><clipPath id="5eaed4929e"><path d="M 300 369 L 490.566406 369 L 490.566406 509 L 300 509 Z M 300 369 " clip-rule="nonzero"/></clipPath><clipPath id="d07866701b"><path d="M 300.484375 163.542969 L 475.535156 163.542969 L 475.535156 305 L 300.484375 305 Z M 300.484375 163.542969 " clip-rule="nonzero"/></clipPath><clipPath id="c690c53ae3"><path d="M 308.273438 163.632812 L 467.5625 163.632812 C 471.777344 163.632812 475.261719 167.023438 475.261719 171.324219 L 475.261719 297.054688 C 475.261719 301.269531 471.867188 304.746094 467.5625 304.746094 L 308.273438 304.746094 C 304.058594 304.746094 300.574219 301.359375 300.574219 297.054688 L 300.574219 171.324219 C 300.574219 167.113281 304.058594 163.632812 308.273438 163.632812 Z M 308.273438 163.632812 " clip-rule="nonzero"/></clipPath><clipPath id="6e44f15e90"><path d="M 300.484375 163.542969 L 475.535156 163.542969 L 475.535156 185 L 300.484375 185 Z M 300.484375 163.542969 " clip-rule="nonzero"/></clipPath><clipPath id="038161f5b0"><path d="M 308.273438 163.632812 L 467.5625 163.632812 C 471.777344 163.632812 475.261719 167.023438 475.261719 171.324219 L 475.261719 297.054688 C 475.261719 301.269531 471.867188 304.746094 467.5625 304.746094 L 308.273438 304.746094 C 304.058594 304.746094 300.574219 301.359375 300.574219 297.054688 L 300.574219 171.324219 C 300.574219 167.113281 304.058594 163.632812 308.273438 163.632812 Z M 308.273438 163.632812 " clip-rule="nonzero"/></clipPath></defs><g clip-path="url(#a751fe0e1e)"><g clip-path="url(#57256c7484)"><g clip-path="url(#544cdbb5aa)"><g clip-path="url(#62fb8dfe68)"><path fill="#a3d5ff" d="M 11.679688 136.082031 C 11.914062 177.339844 13.507812 218.5625 16.429688 259.726562 C 19.339844 300.722656 23.601562 341.59375 29.15625 382.324219 C 31.953125 402.757812 35.089844 423.144531 38.558594 443.476562 C 41.851562 462.855469 45.019531 482.472656 50.9375 501.253906 C 54.179688 511.488281 58.648438 521.015625 63.652344 530.507812 C 68.59375 539.863281 75.164062 547.773438 82.40625 555.5 C 85.09375 558.378906 88.050781 561.039062 91.1875 563.433594 C 96.386719 567.390625 101.882812 571.097656 107.59375 574.226562 C 110.976562 576.066406 114.511719 577.640625 118.117188 578.980469 C 124.25 581.230469 130.492188 583.445312 136.859375 584.96875 C 147.285156 587.410156 158.046875 588.097656 168.710938 588.625 C 176.847656 589.039062 184.96875 588.832031 193.09375 588.28125 C 211.265625 587.082031 229.34375 584.472656 247.421875 582.316406 C 288.839844 577.339844 330.25 572.332031 371.636719 567.355469 C 392.191406 564.894531 412.714844 562.402344 433.269531 559.9375 C 443.617188 558.699219 453.960938 557.433594 464.335938 556.195312 C 473.503906 555.09375 482.679688 554.191406 491.742188 552.390625 C 498.597656 551.050781 505.601562 549.8125 512.183594 547.382812 C 514.144531 546.65625 516.074219 545.820312 517.964844 544.898438 C 522.21875 542.824219 526.621094 540.828125 530.582031 538.210938 C 541.460938 531.015625 549.984375 520.808594 556.128906 509.402344 C 559.203125 503.726562 561.136719 497.476562 563.160156 491.363281 C 564.359375 487.710938 565.324219 483.964844 566.0625 480.175781 C 567.625 472.308594 568.335938 464.328125 568.929688 456.355469 C 572.207031 412.960938 573.328125 369.515625 571.382812 326.046875 C 569.566406 285.320312 565.324219 244.726562 558.613281 204.5 C 555.175781 183.855469 551.777344 162.894531 545.746094 142.820312 C 542.558594 132.15625 538.070312 122.347656 532.980469 112.460938 C 527.925781 102.664062 521.28125 94.5 513.789062 86.394531 C 506.789062 78.847656 498.050781 72.867188 489.230469 67.738281 C 480.496094 62.664062 470.71875 59.328125 461.0625 56.496094 C 453.863281 54.40625 446.457031 53.0625 439.007812 52.265625 C 428.472656 51.132812 417.773438 50.554688 407.179688 50.617188 C 390.292969 50.738281 373.488281 52.496094 356.703125 54.082031 C 336.171875 56.007812 315.609375 57.933594 295.078125 59.859375 C 253.671875 63.730469 212.238281 67.605469 170.832031 71.480469 C 150.132812 73.414062 129.429688 75.351562 108.699219 77.289062 C 99.910156 78.109375 91.113281 78.789062 82.355469 80.0625 C 71.886719 81.589844 61.1875 83.472656 51.226562 87.121094 C 45.253906 89.308594 39.472656 92.25 33.984375 95.339844 C 28.332031 98.523438 23.691406 102.832031 18.910156 107.179688 C 13.996094 111.644531 10.617188 117.003906 6.992188 122.542969 C 4.863281 125.804688 3.199219 129.289062 1.886719 132.945312 C -0.351562 139.246094 -2.550781 145.3125 -3.523438 151.894531 C -4.515625 158.589844 -4.878906 165.414062 -4.960938 172.191406 C -5.054688 180.414062 -4.195312 188.570312 -3.109375 196.65625 C 2.386719 237.332031 8.585938 277.90625 14.417969 318.503906 C 17.394531 339.097656 20.371094 359.6875 23.351562 380.28125 C 25.914062 398.070312 28.113281 415.964844 31.628906 433.601562 C 35.234375 451.71875 39.125 469.894531 47.285156 486.625 C 51.824219 495.949219 56.46875 505.128906 63.027344 513.238281 C 69.519531 521.273438 76.59375 529.066406 85.074219 535.007812 C 93.585938 540.980469 102.050781 546.328125 111.867188 549.828125 C 121.65625 553.304688 131.242188 556.3125 141.582031 557.484375 C 160.121094 559.601562 178.453125 559.101562 196.8125 556.046875 C 215.003906 553.003906 232.90625 548.652344 250.621094 543.632812 C 254.953125 542.289062 258.652344 540 261.722656 536.789062 C 265.257812 534.144531 267.953125 530.789062 269.800781 526.699219 C 272.019531 522.640625 273.066406 518.375 272.957031 513.851562 C 273.667969 509.269531 273.167969 504.800781 271.453125 500.382812 C 268.25 492.382812 262.636719 484.800781 254.539062 481.214844 C 251.757812 480.269531 248.996094 479.292969 246.210938 478.347656 C 240.09375 477.144531 234.113281 477.550781 228.210938 479.5625 C 216.585938 482.871094 204.886719 485.925781 193.0625 488.367188 C 196.027344 487.769531 199.019531 487.144531 201.980469 486.546875 C 185.625 489.863281 168.902344 491.953125 152.195312 490.929688 C 155.210938 491.121094 158.257812 491.339844 161.277344 491.535156 C 152.023438 490.914062 142.902344 489.320312 134.109375 486.316406 C 136.894531 487.261719 139.652344 488.234375 142.4375 489.179688 C 135.933594 486.898438 129.78125 483.886719 124.023438 480.082031 C 126.429688 481.707031 128.832031 483.300781 131.238281 484.921875 C 125.597656 481.140625 120.503906 476.667969 115.96875 471.621094 C 117.902344 473.785156 119.804688 475.949219 121.738281 478.113281 C 116.363281 472.015625 111.910156 465.207031 108.21875 457.976562 C 109.527344 460.609375 110.867188 463.210938 112.179688 465.839844 C 105.171875 451.921875 100.949219 436.824219 97.824219 421.597656 C 98.421875 424.558594 99.046875 427.550781 99.644531 430.511719 C 96.496094 414.945312 94.464844 399.160156 92.183594 383.421875 C 89.519531 364.933594 86.851562 346.417969 84.183594 327.929688 C 78.839844 290.753906 73.46875 253.609375 68.125 216.433594 C 65.570312 198.757812 61.886719 180.707031 62.941406 162.761719 C 62.746094 165.777344 62.527344 168.824219 62.335938 171.839844 C 62.71875 166.175781 63.617188 160.617188 65.40625 155.230469 C 64.460938 158.011719 63.488281 160.769531 62.539062 163.554688 C 63.890625 159.636719 65.683594 155.945312 67.972656 152.507812 C 66.351562 154.910156 64.753906 157.3125 63.132812 159.71875 C 65.199219 156.746094 67.570312 154.0625 70.269531 151.644531 C 68.101562 153.574219 65.933594 155.476562 63.769531 157.40625 C 66.984375 154.640625 70.484375 152.335938 74.265625 150.382812 C 71.632812 151.691406 69.03125 153.03125 66.398438 154.339844 C 72.921875 151.09375 79.898438 149.007812 87.027344 147.535156 C 84.0625 148.132812 81.070312 148.761719 78.105469 149.355469 C 87.78125 147.402344 97.617188 146.539062 107.417969 145.621094 C 119.386719 144.5 131.359375 143.382812 143.328125 142.261719 C 167.609375 140 191.859375 137.710938 216.140625 135.445312 C 264.839844 130.882812 313.539062 126.347656 362.238281 121.785156 C 383.957031 119.75 405.765625 117.429688 427.601562 118.84375 C 424.582031 118.648438 421.535156 118.429688 418.519531 118.238281 C 429.9375 119.023438 441.316406 120.863281 452.167969 124.578125 C 449.382812 123.632812 446.621094 122.65625 443.839844 121.710938 C 450.632812 124.085938 457.132812 127.1875 463.15625 131.171875 C 460.75 129.550781 458.347656 127.957031 455.941406 126.332031 C 461.199219 129.886719 465.957031 134.015625 470.210938 138.714844 C 468.28125 136.550781 466.378906 134.382812 464.445312 132.21875 C 469.539062 137.992188 473.71875 144.453125 477.1875 151.328125 C 475.875 148.699219 474.539062 146.097656 473.226562 143.46875 C 480.21875 157.585938 484.171875 172.925781 487.308594 188.296875 C 486.710938 185.332031 486.085938 182.34375 485.488281 179.382812 C 492.246094 212.75 496.996094 246.566406 500.191406 280.457031 C 503.421875 314.828125 504.933594 349.375 504.65625 383.898438 C 504.5 403.398438 503.773438 422.878906 502.507812 442.34375 C 502.703125 439.328125 502.921875 436.28125 503.113281 433.265625 C 502.097656 448.433594 501.363281 464.007812 496.449219 478.503906 C 497.394531 475.71875 498.367188 472.960938 499.316406 470.179688 C 497.671875 474.824219 495.59375 479.269531 492.867188 483.390625 C 494.488281 480.988281 496.085938 478.585938 497.707031 476.179688 C 495.722656 479.089844 493.460938 481.707031 490.871094 484.09375 C 493.039062 482.160156 495.207031 480.257812 497.371094 478.328125 C 494.429688 480.933594 491.226562 483.046875 487.746094 484.8125 C 490.378906 483.503906 492.980469 482.164062 495.613281 480.855469 C 490.128906 483.546875 484.292969 485.273438 478.308594 486.5 C 481.273438 485.902344 484.261719 485.273438 487.226562 484.679688 C 477.242188 486.683594 467.015625 487.601562 456.894531 488.824219 C 445.902344 490.160156 434.910156 491.46875 423.886719 492.808594 C 401.566406 495.503906 379.238281 498.175781 356.917969 500.871094 C 312.269531 506.238281 267.621094 511.632812 222.972656 517 C 202.703125 519.445312 182.328125 522.039062 161.890625 520.785156 C 164.910156 520.976562 167.957031 521.195312 170.972656 521.390625 C 160.921875 520.707031 150.949219 519.085938 141.402344 515.792969 C 144.1875 516.738281 146.945312 517.714844 149.730469 518.660156 C 143.574219 516.496094 137.683594 513.636719 132.226562 510.039062 C 134.632812 511.664062 137.035156 513.257812 139.441406 514.878906 C 134.332031 511.425781 129.695312 507.378906 125.582031 502.753906 C 127.515625 504.917969 129.417969 507.085938 131.351562 509.25 C 126.34375 503.523438 122.257812 497.171875 118.824219 490.40625 C 120.136719 493.039062 121.472656 495.636719 122.785156 498.269531 C 115.929688 484.484375 111.972656 469.507812 108.914062 454.476562 C 109.511719 457.4375 110.140625 460.425781 110.738281 463.390625 C 106.644531 443.097656 103.472656 422.574219 100.421875 402.128906 C 97.171875 380.453125 94.285156 358.71875 91.796875 336.960938 C 86.785156 293.417969 83.292969 249.6875 81.332031 205.910156 C 80.222656 181.113281 79.597656 156.308594 79.453125 131.503906 C 79.308594 126.839844 78.054688 122.5625 75.664062 118.671875 C 74.027344 114.5625 71.441406 111.082031 67.933594 108.257812 C 61.667969 102.789062 51.71875 99.015625 43.308594 99.976562 C 34.589844 100.964844 25.699219 104.453125 20.023438 111.496094 C 18.398438 113.898438 16.804688 116.300781 15.179688 118.707031 C 12.460938 124.160156 11.292969 129.960938 11.679688 136.082031 Z M 11.679688 136.082031 " fill-opacity="1" fill-rule="nonzero"/></g></g></g></g><g clip-path="url(#bd891a8f91)"><g clip-path="url(#69354de0dd)"><g clip-path="url(#a0c7058192)"><g clip-path="url(#b67c0f4dc7)"><path fill="#a3d5ff" d="M 166.535156 495.089844 C 159.546875 489.015625 152.5625 482.945312 145.578125 476.898438 C 138.894531 496.699219 132.207031 516.5 125.523438 536.300781 C 174.964844 532.226562 224.4375 528.175781 273.765625 522.863281 C 323.039062 517.550781 372.167969 511.003906 420.910156 501.988281 C 451.058594 496.414062 481.074219 490.078125 510.808594 482.574219 C 515.140625 481.234375 518.839844 478.945312 521.914062 475.734375 C 525.445312 473.089844 528.140625 469.734375 529.988281 465.644531 C 530.933594 462.859375 531.910156 460.101562 532.855469 457.320312 C 533.960938 452.710938 533.855469 448.214844 532.535156 443.769531 C 532.332031 440.726562 531.347656 437.929688 529.644531 435.382812 C 528.007812 431.273438 525.421875 427.792969 521.914062 424.96875 C 514.960938 419.40625 506.390625 415.875 497.289062 416.6875 C 463.109375 419.648438 428.925781 422.582031 394.6875 424.722656 C 360.476562 426.863281 326.1875 428.214844 291.902344 427.980469 C 272.734375 427.859375 253.558594 427.226562 234.425781 425.96875 C 237.445312 426.164062 240.492188 426.382812 243.511719 426.574219 C 211.421875 424.464844 179.441406 420.5625 147.917969 414.191406 C 139.007812 412.386719 130.144531 410.40625 121.296875 408.226562 C 119.804688 430.59375 118.277344 452.9375 116.785156 475.304688 C 167.09375 475.25 217.40625 472.757812 267.5 467.84375 C 317.5625 462.933594 367.40625 455.574219 416.777344 445.835938 C 447.125 439.851562 477.347656 433.21875 507.332031 425.644531 C 511.664062 424.300781 515.363281 422.011719 518.4375 418.800781 C 521.96875 416.15625 524.664062 412.800781 526.511719 408.710938 C 527.457031 405.925781 528.433594 403.167969 529.378906 400.386719 C 530.484375 395.777344 530.382812 391.28125 529.058594 386.835938 C 528.855469 383.792969 527.871094 380.996094 526.167969 378.449219 C 524.53125 374.339844 521.945312 370.859375 518.4375 368.035156 C 516.03125 366.414062 513.628906 364.820312 511.222656 363.199219 C 505.738281 360.480469 499.9375 359.34375 493.8125 359.726562 C 447.328125 367.316406 400.511719 372.855469 353.546875 376.28125 C 306.585938 379.707031 259.457031 381.078125 212.355469 380.320312 C 185.9375 379.894531 159.503906 378.820312 133.140625 377.085938 C 136.15625 377.28125 139.203125 377.5 142.222656 377.691406 C 132.828125 377.082031 123.425781 376.355469 114.046875 375.574219 C 112.550781 397.941406 111.027344 420.28125 109.535156 442.648438 C 161.296875 441.449219 212.976562 437.789062 264.371094 431.625 C 318.273438 425.179688 371.78125 415.84375 424.828125 404.300781 C 453.292969 398.101562 481.589844 391.121094 509.667969 383.386719 C 513.996094 382.046875 517.699219 379.757812 520.769531 376.546875 C 524.304688 373.902344 526.996094 370.546875 528.847656 366.457031 C 529.792969 363.671875 530.769531 360.914062 531.714844 358.132812 C 532.820312 353.523438 532.714844 349.027344 531.394531 344.582031 C 531.1875 341.539062 530.207031 338.742188 528.503906 336.195312 C 526.863281 332.085938 524.277344 328.605469 520.769531 325.78125 C 513.609375 320.035156 505.449219 317.15625 496.148438 317.5 C 447.195312 319.191406 398.21875 320.886719 349.269531 322.578125 C 300.320312 324.265625 251.339844 325.960938 202.390625 327.652344 C 174.707031 328.613281 147.050781 329.546875 119.363281 330.511719 C 120.886719 353.070312 122.410156 375.628906 123.9375 398.191406 C 171.96875 390.046875 219.972656 381.902344 268.003906 373.757812 C 316.035156 365.613281 364.039062 357.472656 412.074219 349.328125 C 439.117188 344.753906 466.128906 340.152344 493.171875 335.578125 C 497.839844 335.433594 502.121094 334.179688 506.011719 331.792969 C 510.125 330.15625 513.605469 327.570312 516.429688 324.0625 C 519.523438 320.765625 521.625 317 522.695312 312.707031 C 524.539062 308.53125 525.230469 304.121094 524.71875 299.480469 C 523.734375 290.765625 520.242188 281.878906 513.199219 276.207031 C 510.792969 274.585938 508.390625 272.992188 505.984375 271.371094 C 500.5 268.652344 494.699219 267.515625 488.574219 267.898438 C 437.425781 269.34375 386.304688 270.78125 335.152344 272.199219 C 284.003906 273.640625 232.882812 275.082031 181.730469 276.496094 C 152.960938 277.304688 124.1875 278.117188 95.417969 278.925781 C 96.941406 301.484375 98.464844 324.046875 99.988281 346.605469 C 151.519531 336.582031 203.054688 326.558594 254.585938 316.535156 C 305.867188 306.554688 357.148438 296.578125 408.402344 286.601562 C 437.445312 280.957031 466.484375 275.3125 495.523438 269.640625 C 500.191406 269.496094 504.46875 268.242188 508.363281 265.855469 C 512.476562 264.21875 515.957031 261.628906 518.78125 258.125 C 521.875 254.828125 523.972656 251.0625 525.042969 246.769531 C 526.886719 242.59375 527.582031 238.183594 527.070312 233.542969 C 526.085938 224.828125 522.59375 215.941406 515.550781 210.269531 C 513.144531 208.648438 510.742188 207.054688 508.335938 205.429688 C 502.851562 202.714844 497.046875 201.574219 490.921875 201.960938 C 439.390625 211.984375 387.855469 222.007812 336.324219 232.035156 C 285.042969 242.011719 233.761719 251.992188 182.507812 261.96875 C 153.46875 267.613281 124.425781 273.253906 95.386719 278.925781 C 90.722656 279.074219 86.441406 280.324219 82.550781 282.710938 C 78.4375 284.351562 74.953125 286.9375 72.128906 290.441406 C 69.035156 293.738281 66.9375 297.507812 65.867188 301.800781 C 64.023438 305.976562 63.328125 310.386719 63.839844 315.023438 C 64.828125 323.738281 68.316406 332.625 75.363281 338.296875 C 77.765625 339.921875 80.171875 341.515625 82.578125 343.136719 C 88.058594 345.855469 93.863281 346.992188 99.988281 346.605469 C 151.136719 345.164062 202.257812 343.722656 253.410156 342.308594 C 304.558594 340.863281 355.679688 339.425781 406.828125 338.007812 C 435.601562 337.199219 464.375 336.390625 493.144531 335.578125 C 491.621094 313.019531 490.097656 290.460938 488.574219 267.898438 C 440.542969 276.042969 392.539062 284.1875 344.503906 292.332031 C 296.472656 300.476562 248.46875 308.617188 200.4375 316.761719 C 173.394531 321.335938 146.378906 325.9375 119.335938 330.511719 C 114.667969 330.65625 110.390625 331.910156 106.496094 334.296875 C 102.382812 335.933594 98.902344 338.519531 96.078125 342.027344 C 92.984375 345.324219 90.886719 349.089844 89.816406 353.382812 C 87.972656 357.558594 87.277344 361.96875 87.789062 366.609375 C 88.773438 375.324219 92.265625 384.210938 99.308594 389.882812 C 106.472656 395.628906 114.632812 398.507812 123.933594 398.164062 C 172.882812 396.472656 221.863281 394.777344 270.8125 393.089844 C 319.761719 391.398438 368.738281 389.703125 417.691406 388.011719 C 445.375 387.050781 473.03125 386.117188 500.714844 385.152344 C 496.226562 363.191406 491.714844 341.257812 487.226562 319.292969 C 459.898438 326.804688 432.355469 333.621094 404.675781 339.714844 C 396.800781 341.433594 388.921875 343.101562 381.007812 344.710938 C 383.972656 344.113281 386.960938 343.488281 389.925781 342.890625 C 353.214844 350.355469 316.277344 356.5625 279.132812 361.449219 C 242.246094 366.320312 205.21875 369.925781 168.097656 372.207031 C 147.070312 373.511719 126.011719 374.394531 104.957031 374.882812 C 100.292969 375.027344 96.011719 376.28125 92.117188 378.667969 C 88.007812 380.304688 84.523438 382.890625 81.699219 386.398438 C 80.078125 388.800781 78.480469 391.203125 76.859375 393.609375 C 74.636719 397.667969 73.59375 401.929688 73.699219 406.457031 C 73.085938 409.5 73.289062 412.519531 74.308594 415.453125 C 74.808594 419.949219 76.445312 424.03125 79.164062 427.757812 C 81.097656 429.921875 83 432.089844 84.929688 434.253906 C 89.449219 438.167969 94.609375 440.738281 100.472656 441.957031 C 154.09375 446.4375 207.898438 448.640625 261.679688 447.984375 C 312.429688 447.359375 363.160156 444.300781 413.636719 438.824219 C 442 435.75 470.253906 431.886719 498.402344 427.292969 C 493.914062 405.332031 489.402344 383.398438 484.914062 361.433594 C 460.890625 367.53125 436.746094 373.042969 412.476562 377.96875 C 415.441406 377.371094 418.429688 376.746094 421.394531 376.148438 C 381.664062 384.214844 341.628906 390.769531 301.402344 395.726562 C 261.289062 400.671875 220.988281 404.074219 180.632812 405.890625 C 157.859375 406.921875 135.046875 407.441406 112.230469 407.453125 C 107.5625 407.597656 103.285156 408.847656 99.390625 411.238281 C 95.277344 412.875 91.796875 415.460938 88.972656 418.964844 C 87.347656 421.371094 85.753906 423.773438 84.132812 426.175781 C 81.910156 430.234375 80.867188 434.5 80.972656 439.023438 C 80.355469 442.070312 80.5625 445.085938 81.582031 448.019531 C 82.082031 452.519531 83.71875 456.601562 86.4375 460.328125 C 88.367188 462.492188 90.273438 464.65625 92.203125 466.820312 C 96.722656 470.738281 101.882812 473.308594 107.746094 474.527344 C 132.132812 480.554688 156.871094 485.0625 181.773438 488.25 C 209.421875 491.796875 237.277344 493.765625 265.125 494.804688 C 290.328125 495.738281 315.550781 495.675781 340.757812 494.9375 C 366.1875 494.210938 391.605469 492.808594 416.964844 491.039062 C 442.1875 489.277344 467.410156 487.148438 492.605469 484.996094 C 495.707031 484.730469 498.832031 484.460938 501.933594 484.195312 C 497.445312 462.230469 492.933594 440.296875 488.445312 418.335938 C 469.742188 423.054688 450.925781 427.296875 432.027344 431.152344 C 434.988281 430.554688 437.980469 429.929688 440.945312 429.332031 C 399.816406 437.691406 358.328125 444.148438 316.679688 449.453125 C 275.117188 454.722656 233.386719 458.816406 191.628906 462.488281 C 168.101562 464.558594 144.535156 466.488281 120.996094 468.417969 C 118.03125 469.015625 115.042969 469.640625 112.078125 470.238281 C 109.445312 471.550781 106.84375 472.886719 104.210938 474.199219 C 102.046875 476.128906 99.878906 478.03125 97.710938 479.960938 C 94.617188 483.257812 92.519531 487.027344 91.449219 491.320312 C 90.105469 494.074219 89.507812 496.976562 89.714844 500.019531 C 89.097656 503.066406 89.300781 506.082031 90.320312 509.015625 C 90.527344 512.0625 91.507812 514.859375 93.210938 517.40625 C 94.847656 521.515625 97.4375 524.996094 100.945312 527.820312 C 107.929688 533.890625 114.914062 539.960938 121.898438 546.007812 C 128.492188 551.710938 137.804688 554.875 146.523438 554.289062 C 151.191406 554.140625 155.472656 552.890625 159.363281 550.503906 C 163.476562 548.863281 166.957031 546.277344 169.78125 542.773438 C 175.269531 535.914062 179.101562 527.15625 178.070312 518.164062 C 177.050781 509.394531 173.460938 501.109375 166.535156 495.089844 Z M 166.535156 495.089844 " fill-opacity="1" fill-rule="nonzero"/></g></g></g></g><g clip-path="url(#2fb82589f9)"><g clip-path="url(#540a3eb2e5)"><g clip-path="url(#0725577f01)"><g clip-path="url(#079b05f189)"><path fill="#a3d5ff" d="M 114.648438 295.53125 C 117.957031 293.691406 121.320312 291.90625 124.691406 290.179688 C 122.058594 291.488281 119.457031 292.828125 116.824219 294.136719 C 143.085938 280.949219 171.269531 272.273438 199.984375 266.398438 C 197.019531 266.992188 194.027344 267.621094 191.0625 268.21875 C 231.691406 259.949219 273.132812 257.039062 314.40625 253.769531 C 358.613281 250.273438 402.597656 245.972656 445.917969 236.019531 C 468.273438 230.882812 490.222656 223.878906 511.089844 214.308594 C 515.417969 212.96875 519.121094 210.679688 522.191406 207.46875 C 525.726562 204.824219 528.417969 201.46875 530.269531 197.378906 C 531.214844 194.59375 532.191406 191.835938 533.136719 189.054688 C 534.242188 184.445312 534.136719 179.949219 532.816406 175.503906 C 532.609375 172.460938 531.628906 169.664062 529.925781 167.117188 C 528.285156 163.007812 525.699219 159.527344 522.191406 156.703125 C 515.058594 150.980469 506.867188 148.050781 497.570312 148.425781 C 446.089844 150.457031 394.585938 152.488281 343.105469 154.519531 C 291.910156 156.535156 240.6875 158.574219 189.492188 160.589844 C 160.628906 161.714844 131.796875 162.871094 102.933594 163.996094 C 112.21875 182.71875 121.503906 201.441406 130.789062 220.164062 C 133.445312 216.667969 136.40625 213.496094 139.667969 210.582031 C 137.5 212.515625 135.335938 214.417969 133.167969 216.347656 C 138.148438 212.015625 143.6875 208.414062 149.582031 205.4375 C 146.949219 206.75 144.34375 208.085938 141.710938 209.398438 C 152.625 203.957031 164.390625 200.613281 176.300781 198.195312 C 173.335938 198.789062 170.347656 199.417969 167.382812 200.015625 C 184.664062 196.523438 202.28125 194.683594 219.746094 192.597656 C 239.621094 190.207031 259.546875 188.066406 279.484375 186.15625 C 319.503906 182.320312 359.609375 179.382812 399.757812 177.4375 C 422.300781 176.339844 444.863281 175.523438 467.421875 175.019531 C 472.089844 174.875 476.367188 173.625 480.261719 171.234375 C 484.375 169.597656 487.855469 167.011719 490.679688 163.507812 C 493.773438 160.210938 495.871094 156.441406 496.941406 152.148438 C 498.785156 147.972656 499.480469 143.5625 498.96875 138.925781 C 497.984375 130.207031 494.492188 121.324219 487.449219 115.652344 C 485.042969 114.027344 482.636719 112.433594 480.234375 110.8125 C 474.75 108.09375 468.945312 106.957031 462.820312 107.34375 C 425.414062 105.734375 387.972656 104.917969 350.523438 104.871094 C 313.222656 104.839844 275.914062 105.574219 238.65625 107.097656 C 201.683594 108.601562 164.695312 110.675781 127.839844 113.957031 C 117.5 114.882812 107.296875 116.535156 97.171875 119.003906 C 93.632812 119.867188 90.132812 120.953125 86.773438 122.371094 C 81.007812 124.769531 75.191406 127.570312 70.015625 131.121094 C 59.800781 138.101562 51.753906 147.398438 45.882812 158.21875 C 43.109375 163.335938 41.347656 169.121094 39.621094 174.621094 C 38.617188 177.832031 37.960938 181.132812 37.625 184.5 C 36.984375 190.578125 36.46875 196.785156 36.769531 202.914062 C 37.074219 209.097656 38.5 215.121094 39.761719 221.183594 C 41.773438 230.847656 46.003906 239.34375 50.617188 248.042969 C 54.378906 255.097656 59.070312 261.605469 64.269531 267.65625 C 71.195312 275.746094 78.40625 283.472656 86.125 290.773438 C 89.003906 293.496094 91.933594 296.1875 94.863281 298.878906 C 98.164062 301.96875 101.933594 304.066406 106.230469 305.136719 C 110.40625 306.980469 114.816406 307.671875 119.460938 307.160156 C 124.128906 307.015625 128.40625 305.761719 132.300781 303.375 C 136.414062 301.738281 139.894531 299.152344 142.71875 295.648438 C 148.207031 288.789062 152.039062 280.03125 151.003906 271.035156 C 149.996094 261.953125 146.285156 254.046875 139.484375 247.761719 C 131.507812 240.425781 123.523438 233.03125 116.316406 224.90625 C 118.246094 227.070312 120.152344 229.238281 122.082031 231.402344 C 115.757812 224.238281 110.078125 216.519531 105.789062 207.96875 C 107.101562 210.601562 108.4375 213.203125 109.75 215.832031 C 107.058594 210.378906 105.058594 204.703125 103.835938 198.753906 C 104.429688 201.714844 105.058594 204.703125 105.65625 207.667969 C 104.613281 202.296875 104.1875 196.832031 104.527344 191.371094 C 104.332031 194.386719 104.113281 197.429688 103.921875 200.445312 C 104.25 195.695312 105.125 191.015625 106.691406 186.519531 C 105.746094 189.304688 104.769531 192.0625 103.824219 194.84375 C 105.089844 191.332031 106.710938 188.019531 108.769531 184.933594 C 107.144531 187.339844 105.550781 189.742188 103.925781 192.144531 C 105.761719 189.5 107.835938 187.09375 110.242188 184.921875 C 108.074219 186.851562 105.910156 188.753906 103.742188 190.6875 C 106.714844 188.078125 109.96875 185.902344 113.476562 184.109375 C 110.84375 185.417969 108.238281 186.757812 105.605469 188.066406 C 111.171875 185.28125 117.121094 183.523438 123.183594 182.261719 C 120.222656 182.859375 117.230469 183.484375 114.265625 184.082031 C 124.109375 182.113281 134.160156 181.492188 144.167969 180.703125 C 155.671875 179.8125 167.179688 178.980469 178.695312 178.230469 C 202.003906 176.710938 225.363281 175.503906 248.6875 174.582031 C 295.386719 172.757812 342.144531 172.179688 388.871094 172.820312 C 415.058594 173.175781 441.214844 173.929688 467.394531 175.050781 C 465.871094 152.492188 464.347656 129.929688 462.824219 107.371094 C 410.070312 108.554688 357.371094 111.375 304.808594 115.804688 C 278.652344 118.023438 252.550781 120.605469 226.480469 123.613281 C 200.660156 126.605469 174.777344 129.429688 149.394531 135.136719 C 143.953125 136.355469 138.523438 137.828125 133.230469 139.601562 C 125.414062 142.253906 118.144531 145.832031 110.832031 149.613281 C 106.066406 152.058594 101.527344 154.914062 97.328125 158.257812 C 90.929688 163.390625 84.59375 169.003906 79.59375 175.574219 C 77.96875 177.976562 76.375 180.382812 74.75 182.785156 C 73.804688 185.570312 72.832031 188.324219 71.882812 191.109375 C 71.691406 194.125 71.472656 197.171875 71.277344 200.1875 C 71.421875 204.851562 72.675781 209.128906 75.066406 213.019531 C 76.078125 215.839844 77.683594 218.226562 79.914062 220.199219 C 81.582031 222.636719 83.75 224.527344 86.390625 225.851562 C 88.648438 227.796875 91.230469 229.09375 94.160156 229.691406 C 98.339844 231.53125 102.75 232.226562 107.394531 231.714844 C 158.871094 229.683594 210.375 227.648438 261.855469 225.617188 C 313.050781 223.605469 364.273438 221.5625 415.46875 219.550781 C 444.332031 218.421875 473.164062 217.269531 502.027344 216.140625 C 497.539062 194.175781 493.027344 172.242188 488.539062 150.28125 C 464.207031 161.441406 438.449219 169.074219 412.25 174.414062 C 415.214844 173.816406 418.203125 173.1875 421.167969 172.59375 C 377.773438 181.386719 333.515625 184.175781 289.480469 187.71875 C 243.050781 191.449219 196.496094 196.261719 151.40625 208.542969 C 125.160156 215.699219 100.128906 226.171875 76.394531 239.417969 C 72.585938 241.796875 69.621094 244.917969 67.472656 248.773438 C 64.703125 252.246094 62.929688 256.21875 62.183594 260.6875 C 61.078125 265.296875 61.183594 269.792969 62.503906 274.238281 C 63.007812 278.734375 64.640625 282.816406 67.359375 286.542969 C 72.503906 293.449219 79.875 299.351562 88.640625 300.714844 C 91.65625 300.90625 94.707031 301.128906 97.722656 301.320312 C 103.984375 300.867188 109.582031 298.960938 114.648438 295.53125 Z M 114.648438 295.53125 " fill-opacity="1" fill-rule="nonzero"/></g></g></g></g><g clip-path="url(#63b50cad69)"><g clip-path="url(#7a881528a5)"><g clip-path="url(#c28f76e072)"><g clip-path="url(#9273be66de)"><path fill="#a3d5ff" d="M 72.8125 263.597656 C 110.855469 274.199219 149.878906 279.527344 189.304688 281.199219 C 225.605469 282.769531 262.085938 280.21875 297.804688 273.585938 C 320.785156 269.316406 343.527344 263.984375 365.773438 256.816406 C 368.40625 255.503906 371.007812 254.167969 373.640625 252.855469 C 375.808594 250.925781 377.976562 249.023438 380.140625 247.089844 C 381.765625 244.6875 383.359375 242.285156 384.980469 239.878906 C 387.203125 235.820312 388.246094 231.558594 388.140625 227.03125 C 388.753906 223.988281 388.550781 220.972656 387.53125 218.035156 C 387.328125 214.992188 386.34375 212.195312 384.640625 209.648438 C 383.628906 206.828125 382.023438 204.441406 379.792969 202.46875 C 377.144531 198.9375 373.789062 196.246094 369.695312 194.398438 C 341.074219 184.035156 311.878906 176.035156 281.671875 171.957031 C 251.578125 167.867188 220.824219 166.632812 190.511719 168.933594 C 176.832031 169.96875 163.234375 171.738281 149.738281 174.207031 C 140.136719 175.988281 130.574219 177.9375 121.0625 180.195312 C 115.539062 181.53125 110.023438 182.925781 104.6875 184.957031 C 99.632812 186.882812 94.816406 189.445312 90.023438 191.953125 C 87.726562 193.15625 85.492188 194.496094 83.417969 196.082031 C 80.34375 198.414062 77.492188 201.097656 74.636719 203.726562 C 73.675781 204.613281 72.746094 205.554688 71.878906 206.546875 C 69.410156 209.464844 67.371094 212.832031 65.320312 216.027344 C 64.679688 217.035156 64.070312 218.097656 63.546875 219.179688 C 61.890625 222.777344 60.679688 226.652344 59.574219 230.4375 C 59.203125 231.683594 58.976562 232.945312 58.835938 234.199219 C 58.398438 238.195312 57.992188 242.273438 58.125 246.316406 C 58.261719 250.472656 59.425781 254.671875 60.347656 258.660156 C 61.484375 263.738281 64.207031 268.371094 66.664062 272.90625 C 68.511719 276.296875 71.132812 279.035156 73.652344 281.898438 C 76.378906 284.96875 78.988281 287.882812 82.246094 290.382812 C 86.582031 293.742188 91.210938 296.800781 95.929688 299.542969 C 100.710938 302.335938 105.792969 304.542969 111.015625 306.371094 C 126.402344 311.734375 141.960938 316.292969 157.914062 319.605469 C 171.308594 322.382812 184.851562 324.359375 198.476562 325.535156 C 214.875 326.976562 231.367188 327.789062 247.835938 327.359375 C 277.828125 326.578125 307.722656 321.839844 336.75 314.300781 C 349.980469 310.855469 363.015625 306.632812 375.746094 301.667969 C 383.894531 298.480469 391.609375 294.757812 399.417969 290.804688 C 404.324219 288.320312 409.070312 285.5625 413.59375 282.425781 C 426.886719 273.226562 438.101562 261.761719 446.109375 247.679688 C 447.351562 245.5 448.386719 243.21875 449.21875 240.867188 C 450.992188 236.019531 453.003906 231.007812 453.761719 225.832031 C 455.480469 214.355469 454.730469 204.519531 451.738281 193.359375 C 450.296875 187.992188 447.4375 182.972656 444.898438 178.101562 C 443.5625 175.554688 441.984375 173.140625 440.1875 170.882812 C 436.75 166.609375 433.121094 162.40625 429.074219 158.714844 C 425.875 155.816406 422.34375 153.476562 418.753906 151.082031 C 415.160156 148.691406 411.660156 146.351562 407.734375 144.492188 C 402.40625 141.988281 396.703125 140.191406 391.109375 138.359375 C 384.558594 136.226562 377.78125 134.925781 370.949219 134.058594 C 364.3125 133.203125 357.652344 132.746094 350.988281 132.289062 C 346.378906 131.183594 341.878906 131.289062 337.433594 132.609375 C 332.929688 133.113281 328.847656 134.746094 325.117188 137.464844 C 321.3125 139.84375 318.347656 142.964844 316.199219 146.820312 C 313.429688 150.292969 311.65625 154.265625 310.910156 158.734375 C 309.519531 167.527344 310.597656 177.226562 316.085938 184.589844 C 318.015625 186.753906 319.921875 188.917969 321.851562 191.082031 C 326.367188 195 331.53125 197.570312 337.394531 198.789062 C 345.757812 201.3125 354.574219 201.792969 363.269531 202.082031 C 369.375 202.265625 375.492188 201.738281 381.523438 200.851562 C 396.425781 198.625 411.011719 194.695312 425.746094 191.6875 C 422.78125 192.285156 419.792969 192.910156 416.828125 193.507812 C 426.699219 191.539062 436.804688 190.460938 446.90625 191.082031 C 443.890625 190.886719 440.84375 190.667969 437.824219 190.476562 C 443.691406 190.871094 449.484375 191.871094 455.054688 193.789062 C 452.269531 192.84375 449.511719 191.867188 446.726562 190.921875 C 450.5 192.253906 454.046875 193.996094 457.371094 196.210938 C 454.96875 194.585938 452.5625 192.992188 450.15625 191.371094 C 453.011719 193.332031 455.605469 195.621094 457.90625 198.214844 C 455.972656 196.050781 454.070312 193.882812 452.136719 191.71875 C 454.445312 194.425781 456.402344 197.351562 458.03125 200.5 C 456.71875 197.867188 455.382812 195.269531 454.070312 192.636719 C 456.6875 197.84375 458.367188 203.394531 459.546875 209.09375 C 458.949219 206.132812 458.324219 203.144531 457.726562 200.179688 C 459.683594 209.851562 460.351562 219.75 461.242188 229.574219 C 462.242188 240.640625 463.273438 251.703125 464.273438 262.742188 C 466.324219 285.125 468.375 307.535156 470.425781 329.917969 C 471.480469 341.347656 472.570312 352.832031 471.871094 364.324219 C 472.066406 361.308594 472.285156 358.265625 472.476562 355.246094 C 472.003906 362.105469 470.847656 368.871094 468.621094 375.367188 C 469.566406 372.582031 470.542969 369.828125 471.488281 367.042969 C 469.722656 371.976562 467.402344 376.609375 464.492188 380.972656 C 466.117188 378.566406 467.710938 376.164062 469.335938 373.761719 C 465.984375 378.691406 462.03125 383.121094 457.59375 387.074219 C 459.757812 385.144531 461.925781 383.242188 464.089844 381.308594 C 458.445312 386.28125 452.175781 390.414062 445.492188 393.8125 C 448.121094 392.503906 450.726562 391.164062 453.359375 389.855469 C 444.96875 394.046875 436.070312 397 426.871094 398.867188 C 429.832031 398.269531 432.824219 397.644531 435.789062 397.046875 C 418 400.570312 399.816406 400.355469 381.820312 399.160156 C 384.839844 399.355469 387.886719 399.574219 390.90625 399.765625 C 378.832031 398.9375 366.75 397.996094 354.746094 396.570312 C 343.71875 395.246094 332.703125 393.300781 322.171875 389.703125 C 324.953125 390.648438 327.714844 391.625 330.5 392.570312 C 323.878906 390.242188 317.523438 387.242188 311.652344 383.390625 C 314.058594 385.011719 316.460938 386.605469 318.867188 388.226562 C 314.800781 385.5 311.15625 382.316406 307.878906 378.6875 C 309.808594 380.851562 311.710938 383.015625 313.644531 385.179688 C 310.328125 381.382812 307.46875 377.242188 305.179688 372.75 C 306.492188 375.378906 307.828125 377.980469 309.140625 380.613281 C 307.011719 376.367188 305.378906 371.886719 304.410156 367.222656 C 305.007812 370.183594 305.632812 373.171875 306.230469 376.136719 C 305.464844 372.335938 305.148438 368.472656 305.367188 364.605469 C 305.175781 367.621094 304.953125 370.667969 304.761719 373.683594 C 304.996094 370.410156 305.601562 367.226562 306.640625 364.125 C 305.691406 366.90625 304.71875 369.664062 303.769531 372.449219 C 304.773438 369.632812 306.066406 366.996094 307.714844 364.535156 C 309.933594 360.472656 310.980469 356.210938 310.871094 351.683594 C 311.582031 347.105469 311.082031 342.632812 309.367188 338.21875 C 308.027344 333.890625 305.734375 330.191406 302.523438 327.121094 C 299.875 323.589844 296.519531 320.898438 292.425781 319.050781 C 284.304688 315.433594 274.625 313.992188 266.097656 317.398438 C 263.464844 318.710938 260.863281 320.046875 258.230469 321.359375 C 253.355469 324.71875 249.5625 329.027344 246.890625 334.335938 C 243.082031 340.085938 240.777344 347.097656 239.15625 353.695312 C 237.558594 360.289062 237.1875 367.398438 237.558594 374.144531 C 238.375 388.335938 243.355469 401.230469 250.332031 413.421875 C 253.867188 419.613281 258.609375 424.761719 263.386719 430.019531 C 266.292969 433.222656 269.496094 436.125 273.0625 438.574219 C 279.394531 442.960938 285.691406 447.210938 292.707031 450.363281 C 299.691406 453.488281 307.058594 455.964844 314.425781 458.046875 C 324.398438 460.886719 334.675781 462.402344 344.957031 463.519531 C 358.746094 464.996094 372.585938 465.988281 386.425781 466.894531 C 398.410156 467.671875 410.453125 468.078125 422.441406 467.183594 C 428.476562 466.746094 434.460938 465.945312 440.390625 464.78125 C 448.027344 463.273438 455.667969 461.824219 463.035156 459.285156 C 467.414062 457.800781 471.65625 455.984375 475.769531 453.921875 C 482.347656 450.644531 488.878906 447.457031 494.914062 443.222656 C 500.976562 438.960938 506.621094 433.960938 511.851562 428.765625 C 515.039062 425.574219 517.894531 422.125 520.449219 418.410156 C 524.527344 412.441406 528.605469 406.558594 531.328125 399.828125 C 534.289062 392.460938 536.882812 384.75 538.136719 376.875 C 540.300781 363.132812 540.171875 349.0625 539.070312 335.253906 C 537.097656 311.082031 534.671875 286.910156 532.472656 262.753906 C 531.359375 250.449219 530.214844 238.144531 529.101562 225.84375 C 528.582031 220.269531 528.121094 214.691406 527.519531 209.121094 C 526.679688 201.332031 525.199219 193.695312 523.546875 186.019531 C 522.445312 180.992188 521.003906 176.046875 518.792969 171.410156 C 516.710938 167.019531 514.617188 162.484375 511.957031 158.359375 C 509.109375 153.933594 505.359375 150.023438 501.8125 146.210938 C 497.136719 141.199219 491.09375 137.332031 485.222656 133.929688 C 479.292969 130.480469 472.429688 128.308594 465.898438 126.425781 C 461.675781 125.183594 457.289062 124.457031 452.898438 124.101562 C 445.546875 123.496094 438.195312 122.941406 430.824219 123.355469 C 418.570312 124.042969 406.542969 126.835938 394.59375 129.515625 C 389.121094 130.761719 383.652344 132.039062 378.140625 133.144531 C 381.105469 132.550781 384.097656 131.921875 387.0625 131.324219 C 376.996094 133.363281 366.777344 134.847656 356.476562 134.269531 C 359.496094 134.460938 362.542969 134.679688 365.5625 134.875 C 360.605469 134.527344 355.734375 133.722656 350.960938 132.289062 C 346.417969 154.4375 341.90625 176.613281 337.363281 198.761719 C 351.347656 199.714844 365.503906 200.769531 378.851562 205.335938 C 376.066406 204.390625 373.308594 203.417969 370.523438 202.472656 C 375.574219 204.253906 380.347656 206.511719 384.824219 209.4375 C 382.417969 207.816406 380.015625 206.222656 377.609375 204.597656 C 381.46875 207.171875 384.988281 210.164062 388.082031 213.609375 C 386.152344 211.445312 384.246094 209.277344 382.316406 207.113281 C 384.921875 210.054688 387.152344 213.273438 388.921875 216.78125 C 387.609375 214.152344 386.273438 211.550781 384.960938 208.917969 C 386.308594 211.6875 387.324219 214.566406 388.011719 217.578125 C 387.414062 214.617188 386.789062 211.628906 386.191406 208.664062 C 386.832031 211.878906 387.078125 215.121094 386.875 218.394531 C 387.070312 215.375 387.289062 212.332031 387.480469 209.316406 C 387.246094 212.53125 386.605469 215.664062 385.566406 218.734375 C 386.511719 215.953125 387.488281 213.195312 388.433594 210.410156 C 387.171875 213.980469 385.441406 217.328125 383.363281 220.5 C 384.984375 218.09375 386.578125 215.691406 388.203125 213.289062 C 385.109375 217.832031 381.386719 221.878906 377.292969 225.5 C 379.457031 223.566406 381.625 221.664062 383.792969 219.734375 C 376.886719 225.78125 369.109375 230.667969 360.941406 234.789062 C 363.574219 233.480469 366.175781 232.140625 368.808594 230.832031 C 357.816406 236.332031 346.140625 240.550781 334.460938 244.339844 C 321.925781 248.417969 309.171875 251.769531 296.253906 254.429688 C 299.21875 253.832031 302.210938 253.203125 305.171875 252.605469 C 280.902344 257.53125 256.125 259.972656 231.339844 259.804688 C 224.308594 259.738281 217.289062 259.476562 210.285156 259.042969 C 213.304688 259.238281 216.351562 259.457031 219.367188 259.648438 C 190.039062 257.664062 160.707031 252.25 132.828125 242.800781 C 135.613281 243.746094 138.371094 244.722656 141.15625 245.667969 C 134.6875 243.441406 128.453125 240.546875 122.726562 236.742188 C 125.132812 238.363281 127.535156 239.957031 129.941406 241.578125 C 126.730469 239.386719 123.703125 236.957031 121.101562 234.074219 C 123.03125 236.238281 124.9375 238.40625 126.867188 240.570312 C 125.058594 238.539062 123.492188 236.320312 122.277344 233.882812 C 123.589844 236.511719 124.925781 239.113281 126.238281 241.746094 C 125.410156 239.988281 124.78125 238.1875 124.367188 236.289062 C 124.964844 239.253906 125.59375 242.242188 126.1875 245.203125 C 125.84375 243.441406 125.722656 241.667969 125.800781 239.847656 C 125.605469 242.863281 125.386719 245.910156 125.191406 248.925781 C 125.339844 246.90625 125.71875 244.953125 126.355469 243.039062 C 125.410156 245.824219 124.433594 248.582031 123.488281 251.363281 C 124.128906 249.5625 124.980469 247.863281 126.035156 246.261719 C 124.410156 248.667969 122.816406 251.070312 121.191406 253.472656 C 122.585938 251.425781 124.222656 249.644531 126.066406 248.015625 C 123.902344 249.949219 121.734375 251.851562 119.570312 253.78125 C 122.382812 251.382812 125.507812 249.414062 128.828125 247.746094 C 126.195312 249.058594 123.589844 250.394531 120.960938 251.703125 C 131.820312 246.355469 144.019531 243.972656 155.789062 241.5625 C 152.824219 242.160156 149.835938 242.785156 146.871094 243.382812 C 173.265625 238.003906 200.15625 235.394531 227.097656 235.585938 C 234.839844 235.628906 242.539062 235.929688 250.253906 236.429688 C 247.238281 236.238281 244.191406 236.015625 241.171875 235.824219 C 267.652344 237.605469 293.96875 242.003906 319.535156 249.117188 C 326.871094 251.140625 334.109375 253.402344 341.304688 255.863281 C 338.519531 254.917969 335.761719 253.941406 332.976562 252.996094 C 335.097656 253.730469 337.214844 254.464844 339.335938 255.230469 C 340.652344 234.433594 341.941406 213.636719 343.257812 192.839844 C 326.585938 198.214844 309.597656 202.675781 292.429688 206.1875 C 295.394531 205.589844 298.382812 204.964844 301.347656 204.367188 C 268.464844 211.035156 234.929688 214.292969 201.378906 214.007812 C 191.992188 213.933594 182.585938 213.578125 173.1875 212.964844 C 176.207031 213.15625 179.253906 213.375 182.273438 213.570312 C 149.8125 211.371094 117.613281 205.925781 86.269531 197.191406 C 81.660156 196.085938 77.160156 196.191406 72.714844 197.511719 C 68.210938 198.015625 64.128906 199.648438 60.398438 202.367188 C 56.59375 204.75 53.628906 207.867188 51.480469 211.722656 C 48.710938 215.195312 46.9375 219.167969 46.191406 223.636719 C 44.800781 232.429688 45.878906 242.128906 51.367188 249.492188 C 53.296875 251.65625 55.203125 253.824219 57.132812 255.988281 C 61.785156 259.808594 66.976562 262.375 72.8125 263.597656 Z M 72.8125 263.597656 " fill-opacity="1" fill-rule="nonzero"/></g></g></g></g><g clip-path="url(#6c4809fa3a)"><path fill="#bfd4d7" d="M 495.1875 39.875 C 500.320312 34.066406 500.273438 36.523438 503.253906 28.882812 C 484.914062 21.660156 476.578125 41.949219 465.808594 51.8125 C 458.75 58.277344 455.398438 63.699219 446.328125 68.765625 C 438.507812 73.136719 439.828125 75.300781 432.003906 79.816406 C 416.347656 88.851562 406.601562 104.4375 387.476562 110.140625 C 390.664062 101.9375 394.613281 102.121094 402.285156 97.832031 C 399.179688 95.785156 403.550781 97.019531 399.054688 97.089844 L 389.984375 99.34375 C 397.410156 92.875 399.835938 97.542969 400.859375 86.109375 L 387.601562 93.238281 C 384.964844 86 385.828125 79.332031 386.890625 71.890625 C 381.164062 67.226562 378.320312 66.941406 376.996094 59.269531 C 370.859375 59.640625 367.589844 60.9375 363.210938 62.503906 C 366.125 45.351562 368.695312 48.949219 372.46875 39.875 C 362.03125 34.640625 369.589844 46.140625 362.253906 35.484375 C 358.425781 29.929688 361.230469 29.898438 355.648438 24.40625 C 345.089844 25.691406 351.964844 25.128906 346.277344 28.359375 C 343.386719 30 346.378906 28.804688 342.203125 30.625 L 277.757812 75.117188 C 276.527344 76.203125 275.742188 77.214844 274.347656 78.15625 C 270.554688 80.714844 274.757812 78.207031 270.042969 80.328125 L 265.328125 82.191406 C 259.851562 84.554688 266.164062 82.5 261.167969 84.179688 C 251.09375 87.566406 259.386719 76.480469 238.359375 91.140625 L 229.171875 95.714844 C 233.730469 87.992188 229.949219 95.335938 233.496094 90.539062 L 236.863281 85.019531 C 245.105469 70.449219 244.457031 84.910156 255.28125 65.441406 C 255.3125 65.386719 258.058594 61.21875 258.113281 61.136719 C 251.007812 64.359375 252.085938 64.988281 247.597656 70.191406 C 236.417969 69.925781 241.152344 68.195312 236.933594 67.792969 C 234.074219 67.515625 235.460938 68.15625 231.726562 69.246094 C 225.636719 71.019531 233 70.277344 228.488281 69.785156 L 217.203125 64.929688 C 222.21875 61.082031 222.050781 63.804688 225.21875 57.074219 L 204.742188 66.148438 C 196.082031 71.804688 199.671875 74.816406 184.910156 78.664062 C 187.753906 80.558594 184.496094 79.503906 189.351562 80.640625 C 189.457031 80.664062 195.34375 80.820312 195.683594 80.824219 L 193.554688 84.695312 C 191.347656 90.304688 191.578125 82.339844 193.710938 88.058594 L 206.375 81.882812 L 203.074219 88.921875 C 185.414062 109.359375 192.511719 105.683594 184.777344 116.605469 L 180.304688 122.976562 C 177.1875 126.894531 176.71875 126.867188 172.363281 129.808594 C 167.835938 132.871094 157.230469 143.980469 151.929688 140.375 L 148.589844 137.421875 C 139.863281 142.65625 137.902344 141.722656 133.363281 148.179688 C 132.910156 147.535156 132.078125 146.546875 130.726562 145.296875 C 130.308594 144.910156 128.125 143.289062 128.089844 143.167969 C 127.867188 142.351562 127.050781 142.457031 126.535156 142.101562 L 140.28125 136.726562 C 148.820312 134.585938 151.445312 131.550781 149.679688 124.234375 C 137.945312 123.390625 119.085938 152.484375 101.910156 155.085938 L 137.765625 125.300781 C 137.339844 124.953125 136.796875 124.40625 136.539062 124.199219 C 136.292969 123.996094 135.660156 123.371094 135.359375 123.144531 L 133.125 121.476562 C 127.046875 118.28125 123.75 123.476562 118.574219 127.246094 C 104.285156 137.652344 111.277344 127.210938 99.492188 143.003906 C 96.921875 139.417969 98.300781 144.398438 98.269531 138.554688 L 98.722656 135.628906 C 100.09375 129.640625 99.019531 138.289062 101.25 130.109375 C 89.109375 134.613281 89.371094 141.175781 82.640625 144.585938 C 82.773438 144.996094 83.140625 145.566406 83.238281 145.738281 L 86.058594 150.140625 C 76.421875 151.0625 70.296875 160.914062 61.699219 166.289062 C 52.625 171.960938 49.949219 179.371094 41.855469 184.699219 C 38.839844 178.378906 42.949219 187.734375 41.855469 179.265625 C 28.816406 185.925781 34.609375 202.992188 21.144531 221.191406 C 35.105469 219.90625 19.714844 224.035156 36.515625 223.160156 L 66.785156 225.585938 L 22.597656 272.515625 C 15.859375 278.851562 7.207031 285.632812 8.484375 295.472656 C 10.03125 307.359375 -5.261719 307.898438 -8.964844 323.570312 C 3.539062 322.382812 11.011719 303.347656 23.808594 298.738281 L 24.546875 321.496094 C 39.246094 313.414062 38.464844 317.21875 41.582031 319.511719 L 22.945312 342.609375 C 35.125 341.125 46.097656 325.5625 56.714844 320.242188 C 54.300781 336.25 49.214844 328.222656 55.210938 340.488281 L 44.851562 342.992188 C 46.425781 347.484375 45.339844 353.140625 46.816406 361.355469 C 55.464844 360.042969 51.671875 359.605469 57.011719 356.113281 L 67.40625 351.953125 C 66.058594 363.554688 56.722656 355.945312 54.371094 371.125 C 65.269531 366.550781 59.144531 362.316406 70.546875 363.550781 C 83.027344 364.902344 75.28125 368.15625 84.414062 360.367188 C 83.734375 377.140625 73.929688 375.3125 68.253906 375.585938 C 67.523438 381.34375 63.683594 389.175781 65.558594 394.253906 C 65.675781 394.574219 66.125 395.335938 66.242188 395.601562 L 6.148438 469.523438 C 1.144531 476.394531 -9.589844 489.644531 -11.992188 494.851562 C -1.242188 489.128906 -5.355469 486.015625 3.503906 480.289062 L 7.703125 492.226562 C 14.425781 490.140625 14.539062 489.277344 18.660156 487.230469 L 26.0625 485.289062 C 19.273438 489.226562 16.648438 492.097656 13.1875 500.957031 L 15.507812 501.042969 C 15.707031 501.054688 16.390625 501.082031 16.605469 501.097656 C 16.816406 501.113281 17.453125 501.152344 17.664062 501.171875 L 22.726562 501.679688 C 27.285156 500.652344 28.441406 496.429688 30.882812 492.308594 C 40.476562 503.78125 28.59375 508.203125 27.695312 519.382812 L 54.898438 503.5 L 67.554688 507.367188 C 61.25 510.722656 62.007812 509.878906 59.785156 518.625 C 68.367188 515.007812 63.316406 517.121094 69.914062 511.835938 C 68.433594 517.023438 60.734375 529.082031 57.273438 532.976562 L 61.488281 533.371094 C 65.289062 534.476562 60.765625 540.023438 67.421875 533.1875 C 74.109375 526.3125 71.671875 525.339844 80.261719 518.296875 C 85.945312 545.515625 70.796875 544.730469 91.488281 549.660156 C 97.585938 540.179688 108.242188 534.40625 116.027344 525.933594 L 198.84375 461.90625 C 188.742188 475.886719 182.816406 486.132812 169.9375 498.800781 C 153.796875 514.675781 153.066406 520.613281 141.851562 532.976562 C 142.304688 533.28125 143.0625 533.535156 143.359375 533.632812 L 146.0625 534.554688 C 146.296875 534.605469 146.988281 534.683594 147.195312 534.714844 C 147.578125 534.769531 148.929688 534.292969 149.640625 534.261719 C 145.679688 538.484375 140.789062 543.324219 138.917969 550.195312 C 164.417969 545.101562 156.460938 528.121094 176.332031 528.113281 C 174.390625 539.695312 177.277344 534.070312 169.886719 541.511719 L 171.90625 541.277344 C 179.601562 540.910156 172.074219 541.230469 180.25 545.441406 C 181.445312 543.246094 181.46875 542.351562 183.613281 539.855469 C 187.351562 535.5 181.703125 540.144531 187.878906 536.4375 C 183.089844 552.992188 176.59375 542.605469 176.640625 560.386719 L 184.519531 552.660156 C 185.261719 562.75 182.21875 560.453125 183.71875 572.367188 L 190.234375 561.710938 C 195.265625 556.902344 194.066406 559.75 197.417969 558.742188 L 208.359375 552.597656 L 210.46875 564.945312 C 204.457031 568.269531 202.882812 569.105469 199.996094 575.765625 C 209.09375 573.164062 216.667969 562.28125 221.042969 554.578125 L 225.742188 563.777344 C 225.347656 566.425781 224.875 566.0625 224.125 567.472656 C 220.304688 574.636719 217.621094 578.410156 214.511719 587.132812 C 224.265625 582.332031 226.640625 569.316406 236.109375 563.816406 C 239.773438 569.375 234.953125 574.222656 232.804688 578.34375 C 242.003906 581.457031 245.320312 580.40625 251.472656 571.855469 C 260.945312 558.691406 266.839844 570.976562 272.980469 556.0625 C 276.648438 547.152344 270.175781 555.285156 280.828125 547.582031 C 291.53125 539.84375 282.457031 544.242188 286.039062 540.46875 L 301.523438 529.851562 C 304.636719 528.746094 304.035156 529.050781 309.226562 527.957031 C 307.328125 536.832031 302.558594 543.148438 303.058594 551.578125 C 310.257812 548.65625 303.714844 549.8125 310.722656 543.074219 C 308.621094 552.234375 308.792969 547.429688 310.40625 553.828125 L 312.273438 558.585938 L 325.488281 548.601562 C 328.300781 555.582031 322.308594 555.109375 325.761719 561.261719 L 332.015625 556.152344 C 333.871094 554.125 334.621094 552.757812 335.394531 551.34375 C 332.945312 564.089844 326.089844 552.652344 333.535156 573.167969 C 328.652344 576.632812 325.9375 573.765625 325.371094 582.070312 C 329.1875 584.671875 334.480469 583.996094 339.144531 580.597656 L 342.621094 577.375 C 349.335938 570.398438 343.859375 570.683594 348.464844 562.535156 C 351.332031 557.457031 354.996094 559.503906 356.132812 552.421875 C 356.707031 554.183594 356.75 556.113281 357.902344 558.292969 C 358.101562 558.667969 358.496094 559.28125 358.703125 559.613281 L 362.050781 562.972656 C 371.566406 560.027344 363.128906 564.542969 369.308594 557.171875 C 385.621094 537.703125 386.320312 535.089844 408.445312 515.335938 C 420.929688 504.1875 433.78125 492.875 443.742188 480.191406 C 457.3125 462.917969 511.699219 423.25 531.921875 403.914062 C 539.207031 396.945312 542.417969 384.664062 541.0625 372.492188 C 529.871094 374.519531 534.929688 377.351562 524.234375 379.824219 C 527.226562 376.011719 533.179688 370.648438 534.917969 367.054688 C 536.433594 363.917969 535.5625 364.796875 536.027344 363.472656 L 541.027344 354.273438 C 537.492188 357.09375 516.332031 370.523438 512.144531 372.117188 C 506.753906 365.535156 509.40625 371.917969 506.816406 364.382812 C 503.734375 355.414062 511.046875 352.230469 515.578125 345.757812 C 508.222656 349.636719 511.789062 350.316406 503.386719 351.046875 C 503.570312 350.582031 505.082031 346.296875 505.140625 346.035156 L 509.277344 334.636719 C 524.867188 309.875 518.632812 323.503906 536.441406 303.859375 C 544.253906 295.242188 539.636719 297.21875 552.035156 291.65625 L 556.128906 300.765625 C 565.984375 297.515625 566.558594 300.109375 568.09375 290.5 C 573.855469 290.703125 572.964844 292.859375 575.222656 291.761719 C 574.511719 290.371094 573.347656 288.691406 572.957031 287.757812 L 570.367188 277.71875 C 569.292969 273.445312 567.695312 268.507812 563.941406 266.066406 C 563.679688 265.898438 563.074219 265.664062 562.800781 265.519531 C 562.523438 265.375 561.875 265.222656 561.589844 265.089844 L 559.160156 264.253906 C 552.824219 260.730469 555.558594 255.011719 557.5625 249.066406 C 550.960938 243.828125 552.667969 249.207031 549.691406 241.863281 C 558.261719 239.394531 560.402344 241.195312 559.300781 231.015625 C 553.6875 229.863281 555.359375 228.914062 550.722656 232.730469 C 550.402344 232.996094 550.015625 233.539062 549.71875 233.839844 C 544.523438 239.078125 544.765625 240.523438 537.160156 243.082031 C 540.589844 232.402344 542.769531 235.875 544.945312 227.714844 L 531.957031 224.445312 C 534.984375 218.160156 535.558594 219.484375 540.804688 214.304688 L 555.363281 183.378906 C 555.109375 177.84375 555.664062 181.476562 558.140625 173.839844 C 549.199219 177.480469 548.222656 172.324219 539.886719 185.460938 C 535.859375 191.804688 541.527344 188.472656 522.300781 197.726562 C 531.496094 176.878906 540.425781 176.050781 555.859375 163.683594 L 548.019531 161.324219 C 543.859375 162.195312 526.378906 181.289062 525.25 183.46875 C 518.363281 181.082031 521.746094 181.65625 514.976562 179.535156 C 522.683594 177.039062 522.207031 174 521.492188 164.058594 C 509.4375 163.179688 519.285156 166.300781 507.441406 168.183594 C 509.242188 150.261719 540.207031 161.515625 534.816406 138.132812 C 534.445312 138.484375 533.96875 139.015625 533.75 139.238281 L 529.261719 137.160156 C 521.636719 138.28125 517.820312 140.75 512.667969 144.160156 L 511.011719 131.796875 C 496.167969 136.402344 506.574219 127.597656 495.753906 139.195312 C 490.839844 144.460938 484.785156 148.003906 478.597656 150.648438 C 485.128906 140.824219 494.339844 135.476562 501.1875 125.792969 C 501.453125 125.414062 501.816406 124.898438 502.082031 124.515625 L 509.253906 114.558594 C 520.558594 100.429688 529.316406 103.507812 543.066406 88.96875 L 541.015625 88.355469 C 540.835938 88.316406 540.167969 88.160156 539.976562 88.125 L 535.800781 87.617188 C 542.59375 81.734375 544.332031 82.785156 543.863281 70.125 C 531.722656 73.515625 539.980469 76.367188 517.796875 79.128906 C 520.085938 74.160156 522.191406 72.058594 523.359375 64.238281 C 513.402344 67.394531 515.902344 66.375 509.164062 73.9375 C 508.292969 74.917969 504.660156 78.761719 504.019531 79.292969 C 499.652344 82.898438 503.84375 80.804688 499.828125 81.738281 L 500.351562 77.691406 C 503.253906 70.945312 508.179688 71.292969 511.925781 64.847656 C 504.007812 69.328125 507.632812 69.625 498.144531 72.160156 C 502.089844 56.9375 518.632812 48.730469 516.941406 38.78125 C 511.53125 40.136719 502.636719 51.339844 494.574219 55.347656 C 497.746094 43.492188 499.441406 49.558594 502.871094 39.875 Z M 495.1875 39.875 " fill-opacity="1" fill-rule="evenodd"/></g><g clip-path="url(#7af0d07b51)"><path fill="#bee9f6" d="M 495.1875 31.066406 C 500.320312 25.257812 500.273438 27.71875 503.253906 20.078125 C 484.914062 12.855469 476.578125 33.144531 465.808594 43.007812 C 458.75 49.472656 455.398438 54.894531 446.328125 59.960938 C 438.507812 64.332031 439.828125 66.496094 432.003906 71.007812 C 416.347656 80.046875 406.601562 95.632812 387.476562 101.335938 C 390.664062 93.132812 394.613281 93.316406 402.285156 89.027344 C 399.179688 86.980469 403.550781 88.214844 399.054688 88.285156 L 389.984375 90.539062 C 397.410156 84.066406 399.835938 88.738281 400.859375 77.304688 L 387.601562 84.433594 C 384.964844 77.195312 385.828125 70.523438 386.890625 63.085938 C 381.164062 58.421875 378.320312 58.136719 376.996094 50.464844 C 370.859375 50.835938 367.589844 52.132812 363.210938 53.695312 C 366.125 36.546875 368.695312 40.144531 372.46875 31.066406 C 362.03125 25.835938 369.589844 37.335938 362.253906 26.679688 C 358.425781 21.121094 361.230469 21.089844 355.648438 15.601562 C 345.089844 16.882812 351.964844 16.324219 346.277344 19.554688 C 343.386719 21.195312 346.378906 20 342.203125 21.820312 L 277.757812 66.3125 C 276.527344 67.398438 275.742188 68.410156 274.347656 69.351562 C 270.554688 71.910156 274.757812 69.402344 270.042969 71.523438 L 265.328125 73.386719 C 259.851562 75.75 266.164062 73.695312 261.167969 75.375 C 251.09375 78.761719 259.386719 67.675781 238.359375 82.335938 L 229.171875 86.910156 C 233.730469 79.183594 229.949219 86.527344 233.496094 81.734375 L 236.863281 76.214844 C 245.105469 61.644531 244.457031 76.105469 255.28125 56.636719 C 255.3125 56.582031 258.058594 52.414062 258.113281 52.332031 C 251.007812 55.554688 252.085938 56.183594 247.597656 61.386719 C 236.417969 61.121094 241.152344 59.390625 236.933594 58.984375 C 234.074219 58.710938 235.460938 59.351562 231.726562 60.4375 C 225.636719 62.214844 233 61.472656 228.488281 60.980469 L 217.203125 56.125 C 222.21875 52.277344 222.050781 55 225.21875 48.269531 L 204.742188 57.34375 C 196.082031 63 199.671875 66.007812 184.910156 69.859375 C 187.753906 71.753906 184.496094 70.699219 189.351562 71.835938 C 189.457031 71.859375 195.34375 72.015625 195.683594 72.015625 L 193.554688 75.890625 C 191.347656 81.5 191.578125 73.535156 193.710938 79.253906 L 206.375 73.078125 L 203.074219 80.117188 C 185.414062 100.554688 192.511719 96.878906 184.777344 107.800781 L 180.304688 114.171875 C 177.1875 118.089844 176.71875 118.058594 172.363281 121.003906 C 167.835938 124.066406 157.230469 135.175781 151.929688 131.566406 L 148.589844 128.617188 C 139.863281 133.851562 137.902344 132.914062 133.363281 139.375 C 132.910156 138.730469 132.078125 137.742188 130.726562 136.492188 C 130.308594 136.105469 128.125 134.484375 128.089844 134.363281 C 127.867188 133.542969 127.050781 133.652344 126.535156 133.296875 L 140.28125 127.921875 C 148.820312 125.78125 151.445312 122.746094 149.679688 115.429688 C 137.945312 114.585938 119.085938 143.675781 101.910156 146.28125 L 137.765625 116.496094 C 137.339844 116.144531 136.796875 115.601562 136.539062 115.394531 C 136.292969 115.191406 135.660156 114.566406 135.359375 114.339844 L 133.125 112.671875 C 127.046875 109.476562 123.75 114.671875 118.574219 118.441406 C 104.285156 128.847656 111.277344 118.402344 99.492188 134.195312 C 96.921875 130.609375 98.300781 135.59375 98.269531 129.75 L 98.722656 126.824219 C 100.09375 120.832031 99.019531 129.484375 101.25 121.304688 C 89.109375 125.808594 89.371094 132.371094 82.640625 135.78125 C 82.773438 136.191406 83.140625 136.761719 83.238281 136.933594 L 86.058594 141.335938 C 76.421875 142.257812 70.296875 152.109375 61.699219 157.484375 C 52.625 163.15625 49.949219 170.5625 41.855469 175.894531 C 38.839844 169.574219 42.949219 178.929688 41.855469 170.460938 C 28.816406 177.121094 34.609375 194.1875 21.144531 212.386719 C 35.105469 211.101562 19.714844 215.226562 36.515625 214.351562 L 66.785156 216.78125 L 22.597656 263.710938 C 15.859375 270.046875 7.207031 276.828125 8.484375 286.667969 C 10.03125 298.554688 -5.261719 299.09375 -8.964844 314.765625 C 3.539062 313.578125 11.011719 294.542969 23.808594 289.933594 L 24.546875 312.691406 C 39.246094 304.609375 38.464844 308.414062 41.582031 310.707031 L 22.945312 333.804688 C 35.125 332.320312 46.097656 316.757812 56.714844 311.4375 C 54.300781 327.445312 49.214844 319.417969 55.210938 331.683594 L 44.851562 334.1875 C 46.425781 338.679688 45.339844 344.335938 46.816406 352.546875 C 55.464844 351.238281 51.671875 350.800781 57.011719 347.304688 L 67.40625 343.148438 C 66.058594 354.75 56.722656 347.136719 54.371094 362.320312 C 65.269531 357.742188 59.144531 353.511719 70.546875 354.746094 C 83.027344 356.097656 75.28125 359.351562 84.414062 351.5625 C 83.734375 368.335938 73.929688 366.503906 68.253906 366.78125 C 67.523438 372.539062 63.683594 380.371094 65.558594 385.445312 C 65.675781 385.769531 66.125 386.53125 66.242188 386.796875 L 6.148438 460.71875 C 1.144531 467.589844 -9.589844 480.839844 -11.992188 486.046875 C -1.242188 480.320312 -5.355469 477.210938 3.503906 471.484375 L 7.703125 483.417969 C 14.425781 481.335938 14.539062 480.46875 18.660156 478.425781 L 26.0625 476.484375 C 19.273438 480.417969 16.648438 483.289062 13.1875 492.148438 L 15.507812 492.238281 C 15.707031 492.25 16.390625 492.277344 16.605469 492.292969 C 16.816406 492.308594 17.453125 492.34375 17.664062 492.363281 L 22.726562 492.875 C 27.285156 491.847656 28.441406 487.625 30.882812 483.503906 C 40.476562 494.976562 28.59375 499.398438 27.695312 510.578125 L 54.898438 494.691406 L 67.554688 498.5625 C 61.25 501.917969 62.007812 501.074219 59.785156 509.816406 C 68.367188 506.203125 63.316406 508.316406 69.914062 503.03125 C 68.433594 508.21875 60.734375 520.277344 57.273438 524.167969 L 61.488281 524.566406 C 65.289062 525.671875 60.765625 531.21875 67.421875 524.382812 C 74.109375 517.507812 71.671875 516.535156 80.261719 509.492188 C 85.945312 536.710938 70.796875 535.925781 91.488281 540.855469 C 97.585938 531.371094 108.242188 525.601562 116.027344 517.128906 L 198.84375 453.101562 C 188.742188 467.082031 182.816406 477.328125 169.9375 489.996094 C 153.796875 505.871094 153.066406 511.808594 141.851562 524.167969 C 142.304688 524.476562 143.0625 524.730469 143.359375 524.828125 L 146.0625 525.75 C 146.296875 525.800781 146.988281 525.878906 147.195312 525.90625 C 147.578125 525.960938 148.929688 525.488281 149.640625 525.453125 C 145.679688 529.679688 140.789062 534.519531 138.917969 541.386719 C 164.417969 536.296875 156.460938 519.316406 176.332031 519.308594 C 174.390625 530.890625 177.277344 525.265625 169.886719 532.707031 L 171.90625 532.46875 C 179.601562 532.105469 172.074219 532.425781 180.25 536.636719 C 181.445312 534.441406 181.46875 533.546875 183.613281 531.050781 C 187.351562 526.695312 181.703125 531.339844 187.878906 527.628906 C 183.089844 544.1875 176.59375 533.800781 176.640625 551.582031 L 184.519531 543.855469 C 185.261719 553.945312 182.21875 551.644531 183.71875 563.5625 L 190.234375 552.90625 C 195.265625 548.097656 194.066406 550.945312 197.417969 549.9375 L 208.359375 543.792969 L 210.46875 556.140625 C 204.457031 559.464844 202.882812 560.300781 199.996094 566.960938 C 209.09375 564.359375 216.667969 553.476562 221.042969 545.773438 L 225.742188 554.972656 C 225.347656 557.621094 224.875 557.257812 224.125 558.664062 C 220.304688 565.832031 217.621094 569.605469 214.511719 578.328125 C 224.265625 573.527344 226.640625 560.511719 236.109375 555.011719 C 239.773438 560.570312 234.953125 565.417969 232.804688 569.539062 C 242.003906 572.652344 245.320312 571.601562 251.472656 563.050781 C 260.945312 549.886719 266.839844 562.171875 272.980469 547.257812 C 276.648438 538.347656 270.175781 546.480469 280.828125 538.777344 C 291.53125 531.039062 282.457031 535.4375 286.039062 531.664062 L 301.523438 521.046875 C 304.636719 519.9375 304.035156 520.242188 309.226562 519.152344 C 307.328125 528.023438 302.558594 534.34375 303.058594 542.773438 C 310.257812 539.851562 303.714844 541.007812 310.722656 534.265625 C 308.621094 543.429688 308.792969 538.621094 310.40625 545.023438 L 312.273438 549.78125 L 325.488281 539.796875 C 328.300781 546.777344 322.308594 546.304688 325.761719 552.457031 L 332.015625 547.347656 C 333.871094 545.320312 334.621094 543.953125 335.394531 542.539062 C 332.945312 555.28125 326.089844 543.847656 333.535156 564.359375 C 328.652344 567.828125 325.9375 564.960938 325.371094 573.265625 C 329.1875 575.867188 334.480469 575.191406 339.144531 571.792969 L 342.621094 568.570312 C 349.335938 561.59375 343.859375 561.878906 348.464844 553.730469 C 351.332031 548.652344 354.996094 550.695312 356.132812 543.613281 C 356.707031 545.378906 356.75 547.308594 357.902344 549.488281 C 358.101562 549.863281 358.496094 550.476562 358.703125 550.808594 L 362.050781 554.167969 C 371.566406 551.21875 363.128906 555.738281 369.308594 548.367188 C 385.621094 528.898438 386.320312 526.285156 408.445312 506.53125 C 420.929688 495.382812 433.78125 484.070312 443.742188 471.386719 C 457.3125 454.113281 511.699219 414.445312 531.921875 395.109375 C 539.207031 388.140625 542.417969 375.859375 541.0625 363.6875 C 529.871094 365.714844 534.929688 368.546875 524.234375 371.015625 C 527.226562 367.207031 533.179688 361.84375 534.917969 358.25 C 536.433594 355.113281 535.5625 355.992188 536.027344 354.667969 L 541.027344 345.46875 C 537.492188 348.289062 516.332031 361.71875 512.144531 363.3125 C 506.753906 356.726562 509.40625 363.113281 506.816406 355.578125 C 503.734375 346.609375 511.046875 343.425781 515.578125 336.953125 C 508.222656 340.832031 511.789062 341.511719 503.386719 342.242188 C 503.570312 341.773438 505.082031 337.492188 505.140625 337.226562 L 509.277344 325.832031 C 524.867188 301.070312 518.632812 314.699219 536.441406 295.054688 C 544.253906 286.4375 539.636719 288.414062 552.035156 282.851562 L 556.128906 291.960938 C 565.984375 288.710938 566.558594 291.304688 568.09375 281.695312 C 573.855469 281.898438 572.964844 284.054688 575.222656 282.953125 C 574.511719 281.566406 573.347656 279.886719 572.957031 278.953125 L 570.367188 268.914062 C 569.292969 264.640625 567.695312 259.699219 563.941406 257.261719 C 563.679688 257.09375 563.074219 256.855469 562.800781 256.714844 C 562.523438 256.570312 561.875 256.417969 561.589844 256.285156 L 559.160156 255.449219 C 552.824219 251.925781 555.558594 246.207031 557.5625 240.261719 C 550.960938 235.023438 552.667969 240.402344 549.691406 233.058594 C 558.261719 230.585938 560.402344 232.390625 559.300781 222.207031 C 553.6875 221.058594 555.359375 220.109375 550.722656 223.925781 C 550.402344 224.191406 550.015625 224.734375 549.71875 225.035156 C 544.523438 230.273438 544.765625 231.71875 537.160156 234.273438 C 540.589844 223.597656 542.769531 227.070312 544.945312 218.910156 L 531.957031 215.636719 C 534.984375 209.355469 535.558594 210.679688 540.804688 205.5 L 555.363281 174.570312 C 555.109375 169.039062 555.664062 172.671875 558.140625 165.035156 C 549.199219 168.675781 548.222656 163.519531 539.886719 176.65625 C 535.859375 183 541.527344 179.667969 522.300781 188.921875 C 531.496094 168.074219 540.425781 167.242188 555.859375 154.878906 L 548.019531 152.519531 C 543.859375 153.390625 526.378906 172.484375 525.25 174.664062 C 518.363281 172.277344 521.746094 172.847656 514.976562 170.730469 C 522.683594 168.234375 522.207031 165.195312 521.492188 155.25 C 509.4375 154.375 519.285156 157.496094 507.441406 159.378906 C 509.242188 141.453125 540.207031 152.710938 534.816406 129.328125 C 534.445312 129.679688 533.96875 130.210938 533.75 130.433594 L 529.261719 128.351562 C 521.636719 129.476562 517.820312 131.945312 512.667969 135.355469 L 511.011719 122.992188 C 496.167969 127.597656 506.574219 118.789062 495.753906 130.386719 C 490.839844 135.65625 484.785156 139.199219 478.597656 141.84375 C 485.128906 132.015625 494.339844 126.671875 501.1875 116.984375 C 501.453125 116.605469 501.816406 116.089844 502.082031 115.710938 L 509.253906 105.75 C 520.558594 91.625 529.316406 94.703125 543.066406 80.164062 L 541.015625 79.550781 C 540.835938 79.507812 540.167969 79.355469 539.976562 79.320312 L 535.800781 78.8125 C 542.59375 72.929688 544.332031 73.980469 543.863281 61.320312 C 531.722656 64.710938 539.980469 67.5625 517.796875 70.324219 C 520.085938 65.355469 522.191406 63.25 523.359375 55.433594 C 513.402344 58.589844 515.902344 57.570312 509.164062 65.132812 C 508.292969 66.113281 504.660156 69.953125 504.019531 70.484375 C 499.652344 74.09375 503.84375 71.996094 499.828125 72.933594 L 500.351562 68.882812 C 503.253906 62.136719 508.179688 62.488281 511.925781 56.042969 C 504.007812 60.519531 507.632812 60.820312 498.144531 63.355469 C 502.089844 48.132812 518.632812 39.921875 516.941406 29.976562 C 511.53125 31.332031 502.636719 42.53125 494.574219 46.542969 C 497.746094 34.6875 499.441406 40.753906 502.871094 31.066406 Z M 495.1875 31.066406 " fill-opacity="1" fill-rule="evenodd"/></g><path fill="#e73f46" d="M 297.734375 442.929688 C 295.351562 434.507812 286.644531 362.988281 278.671875 333.410156 C 270.699219 303.832031 230.921875 291.285156 230.921875 291.285156 L 241.554688 399.707031 L 247.878906 499.890625 L 382.511719 499.890625 L 388.285156 472.234375 C 388.285156 472.050781 300.117188 451.355469 297.734375 442.929688 Z M 297.734375 442.929688 " fill-opacity="1" fill-rule="nonzero"/><g clip-path="url(#ff7f679466)"><path fill="#f5b493" d="M 167.226562 217.203125 L 217.722656 217.203125 L 217.722656 318.300781 L 167.226562 318.300781 Z M 167.226562 217.203125 " fill-opacity="1" fill-rule="nonzero"/></g><g clip-path="url(#093fcbc455)"><path fill="#eba284" d="M 167.867188 227.917969 C 172.722656 256.855469 194.078125 278.007812 222.488281 284.785156 L 222.488281 247.332031 Z M 167.867188 227.917969 " fill-opacity="1" fill-rule="nonzero"/></g><path fill="#e73f46" d="M 192.429688 282.3125 C 158.335938 281.394531 136.523438 291.835938 126.347656 297.789062 C 115.71875 303.921875 110.675781 309.417969 109.394531 310.882812 C 94.640625 327.273438 93.171875 347.878906 92.4375 362.164062 C 85.566406 487.527344 86.390625 497.507812 111.503906 505.292969 C 142.847656 515 169.699219 511.152344 209.660156 505.660156 C 219.648438 504.285156 239.71875 501.539062 267.125 497.875 L 256.765625 460.421875 L 153.476562 451.265625 C 158.058594 423.515625 162.734375 395.769531 167.316406 368.023438 C 173.273438 360.242188 178.222656 351.816406 182.074219 342.839844 C 186.105469 333.226562 191.328125 311.339844 192.429688 282.3125 Z M 192.429688 282.3125 " fill-opacity="1" fill-rule="nonzero"/><path fill="#e73f46" d="M 201.867188 285.152344 C 201.867188 285.152344 250.535156 289.546875 264.097656 312.898438 C 277.664062 336.25 278.578125 492.199219 278.578125 492.199219 L 131.390625 499.25 L 134.691406 343.300781 Z M 201.867188 285.152344 " fill-opacity="1" fill-rule="nonzero"/><path fill="#f5b493" d="M 167.226562 285.242188 C 167.226562 285.242188 180.054688 314.269531 194.355469 313.722656 C 208.652344 313.171875 217.816406 287.53125 217.816406 287.53125 C 217.816406 287.53125 193.621094 268.574219 167.226562 285.242188 Z M 167.226562 285.242188 " fill-opacity="1" fill-rule="nonzero"/><path fill="#e73f46" d="M 167.226562 267.660156 C 163.835938 267.84375 160.902344 269.949219 159.617188 273.0625 C 157.417969 278.375 152.746094 286.707031 152.746094 286.707031 C 152.746094 286.707031 165.757812 330.664062 172.816406 332.859375 C 179.871094 335.058594 192.519531 313.722656 192.519531 313.722656 C 176.574219 303.832031 167.042969 286.339844 167.226562 267.660156 Z M 167.226562 267.660156 " fill-opacity="1" fill-rule="nonzero"/><path fill="#e73f46" d="M 217.816406 271.324219 C 217.816406 271.324219 221.941406 271.507812 223.5 274.894531 C 225.054688 278.28125 230.921875 290.738281 230.921875 290.738281 C 230.921875 290.738281 223.589844 323.246094 215.15625 328.28125 C 206.726562 333.316406 194.355469 313.722656 194.355469 313.722656 C 194.355469 313.722656 214.515625 303.375 217.816406 271.324219 Z M 217.816406 271.324219 " fill-opacity="1" fill-rule="nonzero"/><path fill="#cc3745" d="M 152.746094 286.707031 C 153.753906 298.976562 157.417969 310.882812 163.375 321.6875 C 166.492188 327.273438 174.558594 341.558594 181.523438 340.277344 C 189.953125 338.722656 197.835938 310.148438 194.355469 318.027344 C 194.445312 318.027344 194.355469 318.027344 180.789062 335.242188 C 168.140625 321.230469 158.609375 304.65625 152.746094 286.707031 Z M 152.746094 286.707031 " fill-opacity="1" fill-rule="nonzero"/><path fill="#cc3745" d="M 194.902344 317.292969 C 195.453125 318.207031 206.359375 338.355469 214.792969 336.339844 C 216.53125 335.882812 219.191406 334.324219 224.140625 319.03125 C 227.164062 309.785156 229.457031 300.261719 230.921875 290.644531 L 213.964844 331.578125 Z M 194.902344 317.292969 " fill-opacity="1" fill-rule="nonzero"/><path fill="#cc3745" d="M 196.828125 327.367188 C 196.828125 327.367188 190.136719 357.675781 202.417969 389.820312 C 214.699219 421.960938 212.132812 499.25 212.132812 499.25 L 217.265625 499.25 C 217.265625 499.25 220.472656 436.796875 211.402344 407.125 C 202.328125 377.457031 194.71875 350.625 196.828125 327.367188 Z M 196.828125 327.367188 " fill-opacity="1" fill-rule="nonzero"/><path fill="#cc3745" d="M 263.824219 337.53125 L 261.257812 384.234375 C 265.199219 424.066406 269.140625 463.992188 273.082031 503.828125 L 281.96875 501.355469 L 265.839844 384.140625 C 265.105469 368.574219 264.464844 353.097656 263.824219 337.53125 Z M 263.824219 337.53125 " fill-opacity="1" fill-rule="nonzero"/><path fill="#f5b493" d="M 200.675781 499.339844 L 219.921875 498.515625 C 219.921875 498.515625 230.738281 496.867188 236.695312 489.726562 C 242.652344 482.582031 252.824219 497.050781 257.867188 496.867188 C 262.90625 496.683594 253.652344 482.671875 253.652344 482.671875 C 253.652344 482.671875 264.742188 496.59375 269.597656 496.410156 C 274.457031 496.226562 264.097656 478.828125 264.097656 478.828125 C 264.097656 478.828125 275.1875 496.226562 279.769531 495.128906 C 284.355469 494.027344 270.699219 470.769531 264.558594 466.375 C 258.417969 461.976562 230.832031 467.382812 230.832031 467.382812 L 201.503906 468.207031 C 201.59375 468.113281 194.078125 485.054688 200.675781 499.339844 Z M 200.675781 499.339844 " fill-opacity="1" fill-rule="nonzero"/><path fill="#e73f46" d="M 190.960938 464.085938 C 190.960938 464.085938 187.664062 496.316406 190.960938 508.039062 L 206.359375 505.015625 C 206.359375 505.015625 202.601562 477.546875 205.078125 468.113281 Z M 190.960938 464.085938 " fill-opacity="1" fill-rule="nonzero"/><path fill="#cc3745" d="M 186.839844 464.085938 C 186.839844 464.085938 185.554688 482.765625 189.496094 495.585938 L 190.960938 464.085938 Z M 186.839844 464.085938 " fill-opacity="1" fill-rule="nonzero"/><path fill="#cc3745" d="M 134.78125 343.207031 C 142.753906 356.210938 145.046875 372.054688 141.011719 386.796875 L 140.28125 454.285156 L 201.503906 468.113281 L 148.34375 448.058594 C 148.160156 428.003906 147.980469 407.949219 147.886719 387.894531 C 151.644531 371.59375 147.152344 354.472656 134.78125 343.207031 Z M 134.78125 343.207031 " fill-opacity="1" fill-rule="nonzero"/><path fill="#efbd42" d="M 201.59375 473.792969 C 201.59375 474.085938 201.566406 474.378906 201.507812 474.667969 C 201.449219 474.957031 201.363281 475.234375 201.253906 475.507812 C 201.140625 475.78125 201 476.039062 200.835938 476.285156 C 200.671875 476.527344 200.488281 476.753906 200.277344 476.964844 C 200.070312 477.171875 199.84375 477.359375 199.597656 477.523438 C 199.351562 477.6875 199.09375 477.824219 198.820312 477.9375 C 198.550781 478.050781 198.269531 478.132812 197.980469 478.191406 C 197.691406 478.25 197.398438 478.277344 197.101562 478.277344 C 196.808594 478.277344 196.515625 478.25 196.226562 478.191406 C 195.9375 478.132812 195.65625 478.050781 195.382812 477.9375 C 195.113281 477.824219 194.851562 477.6875 194.609375 477.523438 C 194.363281 477.359375 194.136719 477.171875 193.925781 476.964844 C 193.71875 476.753906 193.53125 476.527344 193.367188 476.285156 C 193.207031 476.039062 193.066406 475.78125 192.953125 475.507812 C 192.839844 475.234375 192.757812 474.957031 192.699219 474.667969 C 192.640625 474.378906 192.613281 474.085938 192.613281 473.792969 C 192.613281 473.496094 192.640625 473.203125 192.699219 472.914062 C 192.757812 472.625 192.839844 472.347656 192.953125 472.074219 C 193.066406 471.800781 193.207031 471.542969 193.367188 471.296875 C 193.53125 471.054688 193.71875 470.828125 193.925781 470.617188 C 194.136719 470.410156 194.363281 470.222656 194.609375 470.058594 C 194.851562 469.898438 195.113281 469.757812 195.382812 469.644531 C 195.65625 469.53125 195.9375 469.449219 196.226562 469.390625 C 196.515625 469.332031 196.808594 469.304688 197.101562 469.304688 C 197.398438 469.304688 197.691406 469.332031 197.980469 469.390625 C 198.269531 469.449219 198.550781 469.53125 198.820312 469.644531 C 199.09375 469.757812 199.351562 469.898438 199.597656 470.058594 C 199.84375 470.222656 200.070312 470.410156 200.277344 470.617188 C 200.488281 470.828125 200.671875 471.054688 200.835938 471.296875 C 201 471.542969 201.140625 471.800781 201.253906 472.074219 C 201.363281 472.347656 201.449219 472.625 201.507812 472.914062 C 201.566406 473.203125 201.59375 473.496094 201.59375 473.792969 Z M 201.59375 473.792969 " fill-opacity="1" fill-rule="nonzero"/><path fill="#cc3745" d="M 142.480469 450.074219 C 142.480469 450.074219 125.707031 460.238281 119.84375 475.257812 C 119.84375 475.257812 137.898438 457.214844 149.71875 453.644531 Z M 142.480469 450.074219 " fill-opacity="1" fill-rule="nonzero"/><path fill="#cc3745" d="M 297.734375 442.929688 C 297.734375 442.929688 284.996094 451.8125 280.6875 462.984375 L 305.15625 448.058594 Z M 297.734375 442.929688 " fill-opacity="1" fill-rule="nonzero"/><path fill="#f5b493" d="M 263.273438 201.542969 C 261.898438 190.554688 259.242188 183.871094 258.601562 176.636719 C 256.949219 158.871094 258.875 145.226562 246.136719 133.140625 C 242.195312 128.5625 237.703125 124.625 232.664062 121.417969 C 214.332031 108.046875 183.90625 107.683594 163.375 123.066406 C 139.730469 140.832031 140.003906 171.324219 140.097656 178.925781 C 140.464844 214.273438 165.027344 238.082031 175.75 246.78125 C 181.523438 252.367188 188.03125 257.128906 195.085938 260.976562 C 202.96875 265.1875 224.046875 276.359375 239.261719 266.5625 C 243.203125 263.996094 248.703125 257.585938 255.117188 242.570312 C 263.550781 223.0625 264.648438 212.625 263.273438 201.542969 Z M 263.273438 201.542969 " fill-opacity="1" fill-rule="nonzero"/><path fill="#2d1929" d="M 232.9375 216.746094 C 236.605469 214.640625 238.527344 212.535156 238.621094 210.425781 C 238.710938 207.863281 235.871094 206.214844 233.214844 203.191406 C 229.820312 199.347656 227.53125 194.308594 226.339844 188.265625 C 226.339844 187.992188 226.429688 187.808594 226.707031 187.71875 C 226.980469 187.71875 227.164062 187.808594 227.253906 188.082031 C 230.1875 204.292969 239.628906 204.933594 239.535156 210.425781 C 239.445312 212.898438 237.429688 215.28125 233.394531 217.476562 C 233.214844 217.570312 232.9375 217.476562 232.753906 217.296875 C 232.570312 217.203125 232.664062 216.929688 232.9375 216.746094 Z M 232.9375 216.746094 " fill-opacity="1" fill-rule="nonzero"/><path fill="#2d1929" d="M 246.042969 196.234375 C 243.476562 196.417969 241.09375 193.394531 240.726562 189.367188 C 240.363281 185.335938 242.195312 181.949219 244.851562 181.765625 C 247.511719 181.582031 249.800781 184.605469 250.167969 188.632812 C 250.535156 192.660156 248.703125 196.050781 246.042969 196.234375 Z M 246.042969 196.234375 " fill-opacity="1" fill-rule="nonzero"/><path fill="#2d1929" d="M 205.71875 199.621094 C 203.152344 199.804688 200.769531 196.78125 200.402344 192.753906 C 200.035156 188.722656 201.867188 185.335938 204.527344 185.152344 C 207.183594 184.96875 209.476562 187.992188 209.84375 192.019531 C 210.207031 196.050781 208.285156 199.4375 205.71875 199.621094 Z M 205.71875 199.621094 " fill-opacity="1" fill-rule="nonzero"/><path fill="#2d1929" d="M 227.074219 238.996094 C 221.941406 238.996094 213.050781 237.808594 207.917969 230.117188 C 207.734375 229.933594 207.824219 229.65625 208.007812 229.472656 C 208.191406 229.292969 208.46875 229.382812 208.652344 229.566406 C 215.890625 240.28125 230.738281 237.808594 230.921875 237.808594 C 231.195312 237.808594 231.378906 237.898438 231.472656 238.171875 C 231.472656 238.449219 231.378906 238.632812 231.105469 238.722656 C 229.730469 238.90625 228.355469 238.996094 227.074219 238.996094 Z M 227.074219 238.996094 " fill-opacity="1" fill-rule="nonzero"/><path fill="#2d1929" d="M 230.28125 168.394531 C 229.730469 168.394531 229.363281 167.9375 229.363281 167.480469 C 229.363281 167.203125 229.457031 166.929688 229.636719 166.839844 C 229.730469 166.746094 239.996094 158.046875 251.726562 164.730469 C 252.183594 165.007812 252.277344 165.554688 252.09375 166.015625 C 251.816406 166.472656 251.269531 166.5625 250.808594 166.378906 C 240.269531 160.335938 231.289062 167.9375 230.832031 168.304688 C 230.648438 168.304688 230.464844 168.394531 230.28125 168.394531 Z M 230.28125 168.394531 " fill-opacity="1" fill-rule="nonzero"/><path fill="#2d1929" d="M 190.414062 171.964844 C 189.863281 171.964844 189.496094 171.507812 189.496094 171.050781 C 189.496094 170.777344 189.585938 170.59375 189.769531 170.410156 C 198.84375 160.519531 211.308594 165.648438 211.398438 165.738281 C 211.859375 165.921875 212.132812 166.472656 211.859375 166.929688 C 211.675781 167.386719 211.125 167.664062 210.667969 167.386719 C 210.207031 167.203125 199.300781 162.71875 191.054688 171.601562 C 190.960938 171.875 190.6875 171.964844 190.414062 171.964844 Z M 190.414062 171.964844 " fill-opacity="1" fill-rule="nonzero"/><g clip-path="url(#5eaed4929e)"><path fill="#287eef" d="M 464.996094 508.589844 L 304.058594 508.589844 C 301.949219 508.589844 300.207031 506.847656 300.207031 504.742188 C 300.207031 504.558594 300.207031 504.375 300.207031 504.191406 L 317.4375 372.601562 C 317.714844 370.679688 319.273438 369.304688 321.195312 369.304688 L 486.714844 369.304688 C 488.824219 369.304688 490.566406 371.046875 490.566406 373.152344 C 490.566406 373.335938 490.566406 373.609375 490.472656 373.792969 L 468.660156 505.382812 C 468.476562 507.214844 466.828125 508.589844 464.996094 508.589844 Z M 464.996094 508.589844 " fill-opacity="1" fill-rule="nonzero"/></g><path fill="#287eef" d="M 322.296875 508.589844 L 199.027344 508.589844 C 196.917969 508.589844 195.179688 506.847656 195.179688 504.742188 L 195.179688 503.1875 C 195.179688 501.171875 196.828125 499.429688 198.84375 499.339844 L 322.203125 494.027344 C 324.3125 493.9375 326.054688 495.585938 326.144531 497.691406 C 326.144531 497.785156 326.144531 497.785156 326.144531 497.875 L 326.144531 504.742188 C 326.144531 506.941406 324.40625 508.589844 322.296875 508.589844 Z M 322.296875 508.589844 " fill-opacity="1" fill-rule="nonzero"/><path fill="#efefef" d="M 401.847656 458.222656 C 391.21875 458.222656 382.511719 449.617188 382.511719 438.902344 C 382.511719 428.28125 391.125 419.578125 401.847656 419.578125 C 412.480469 419.578125 421.1875 428.1875 421.1875 438.902344 C 421.1875 449.617188 412.570312 458.222656 401.847656 458.222656 Z M 401.847656 421.503906 C 392.226562 421.503906 384.34375 429.285156 384.34375 438.992188 C 384.34375 448.609375 392.132812 456.484375 401.847656 456.484375 C 411.472656 456.484375 419.355469 448.699219 419.355469 438.992188 C 419.355469 429.285156 411.5625 421.503906 401.847656 421.503906 Z M 401.847656 421.503906 " fill-opacity="1" fill-rule="nonzero"/><path fill="#2d1929" d="M 301.398438 494.945312 C 301.398438 494.945312 301.582031 506.941406 307.632812 508.589844 L 301.859375 508.589844 C 297.09375 505.109375 297.277344 498.882812 301.398438 494.945312 Z M 301.398438 494.945312 " fill-opacity="1" fill-rule="nonzero"/><path fill="#2d1929" d="M 179.78125 173.890625 C 175.839844 177.1875 168.875 181.488281 156.777344 182.863281 C 160.625 201.910156 164.476562 220.957031 168.324219 240.097656 C 165.851562 238.722656 117 210.792969 117.183594 165.375 C 117.460938 111.070312 174.097656 84.789062 217.539062 107.222656 C 235.230469 103.105469 253.285156 112.628906 259.882812 129.476562 C 266.480469 145.867188 258.875 160.886719 257.59375 163.175781 C 252 146.324219 240.363281 133.046875 224.964844 124.625 C 218.273438 125.171875 211.765625 127.460938 206.269531 131.398438 C 191.238281 142.664062 194.8125 161.34375 179.78125 173.890625 Z M 179.78125 173.890625 " fill-opacity="1" fill-rule="nonzero"/><path fill="#f5b493" d="M 158.242188 213.816406 C 150.269531 217.019531 140.648438 211.800781 136.707031 202.09375 C 132.765625 192.386719 136.0625 181.949219 144.039062 178.742188 C 152.011719 175.539062 161.632812 180.757812 165.574219 190.464844 C 169.515625 200.171875 166.21875 210.609375 158.242188 213.816406 Z M 158.242188 213.816406 " fill-opacity="1" fill-rule="nonzero"/><path fill="#2d1929" d="M 158.976562 204.566406 C 158.886719 204.566406 153.753906 203.742188 153.292969 198.796875 C 153.019531 195.683594 157.050781 194.402344 158.609375 194.035156 C 157.601562 191.929688 153.570312 184.238281 147.796875 184.511719 C 142.480469 184.785156 142.570312 190.832031 142.570312 191.105469 C 142.570312 191.378906 142.386719 191.5625 142.113281 191.5625 C 141.839844 191.5625 141.65625 191.378906 141.65625 191.105469 C 141.65625 191.015625 141.472656 183.871094 147.703125 183.597656 C 154.945312 183.230469 159.433594 193.761719 159.617188 194.21875 C 159.710938 194.492188 159.617188 194.675781 159.34375 194.859375 C 159.34375 194.859375 159.25 194.859375 159.25 194.859375 C 159.160156 194.859375 153.84375 195.777344 154.121094 198.707031 C 154.484375 203.011719 158.886719 203.652344 159.070312 203.652344 C 159.34375 203.652344 159.527344 203.925781 159.433594 204.199219 C 159.433594 204.382812 159.25 204.566406 158.976562 204.566406 Z M 158.976562 204.566406 " fill-opacity="1" fill-rule="nonzero"/><g clip-path="url(#d07866701b)"><g clip-path="url(#c690c53ae3)"><path fill="#efefef" d="M 308.273438 163.632812 L 467.5625 163.632812 C 471.777344 163.632812 475.261719 167.023438 475.261719 171.324219 L 475.261719 297.054688 C 475.261719 301.269531 471.867188 304.746094 467.5625 304.746094 L 308.273438 304.746094 C 304.058594 304.746094 300.574219 301.359375 300.574219 297.054688 L 300.574219 171.324219 C 300.574219 167.113281 304.058594 163.632812 308.273438 163.632812 Z M 308.273438 163.632812 " fill-opacity="1" fill-rule="nonzero"/></g></g><g clip-path="url(#6e44f15e90)"><g clip-path="url(#038161f5b0)"><path fill="#40c2d6" d="M 291.59375 154.019531 L 479.015625 154.019531 L 479.015625 184.054688 L 291.59375 184.054688 Z M 291.59375 154.019531 " fill-opacity="1" fill-rule="nonzero"/></g></g><path fill="#2d1929" d="M 350.433594 236.25 L 370.597656 221.324219 C 371.511719 220.589844 372.0625 219.492188 372.0625 218.394531 L 372.0625 217.476562 C 372.0625 216.929688 371.605469 216.472656 371.054688 216.472656 C 370.871094 216.472656 370.597656 216.5625 370.414062 216.652344 L 344.476562 235.976562 C 343.925781 236.433594 343.835938 237.167969 344.199219 237.714844 C 344.292969 237.808594 344.382812 237.898438 344.476562 237.992188 L 370.320312 257.222656 C 370.777344 257.585938 371.511719 257.496094 371.878906 257.039062 C 372.0625 256.855469 372.0625 256.578125 372.0625 256.304688 L 372.0625 255.113281 C 372.0625 254.199219 371.605469 253.375 370.871094 252.824219 L 350.433594 237.625 C 350.066406 237.351562 349.976562 236.890625 350.25 236.527344 C 350.25 236.433594 350.339844 236.34375 350.433594 236.25 Z M 350.433594 236.25 " fill-opacity="1" fill-rule="nonzero"/><path fill="#2d1929" d="M 425.492188 236.25 L 405.332031 221.324219 C 404.414062 220.589844 403.863281 219.492188 403.863281 218.394531 L 403.863281 217.476562 C 403.863281 216.929688 404.324219 216.472656 404.871094 216.472656 C 405.054688 216.472656 405.332031 216.5625 405.515625 216.652344 L 431.542969 235.976562 C 432.09375 236.433594 432.183594 237.167969 431.816406 237.714844 C 431.726562 237.808594 431.632812 237.898438 431.542969 237.992188 L 405.699219 257.222656 C 405.238281 257.585938 404.507812 257.496094 404.140625 257.039062 C 403.957031 256.855469 403.957031 256.578125 403.957031 256.304688 L 403.957031 255.113281 C 403.957031 254.199219 404.414062 253.375 405.148438 252.824219 L 425.585938 237.625 C 425.953125 237.351562 426.042969 236.890625 425.769531 236.527344 C 425.585938 236.433594 425.492188 236.34375 425.492188 236.25 Z M 425.492188 236.25 " fill-opacity="1" fill-rule="nonzero"/><path fill="#2d1929" d="M 376.460938 271.230469 C 375.453125 271.230469 374.628906 270.5 374.535156 269.492188 C 374.535156 269.492188 374.535156 269.398438 374.535156 269.398438 C 374.535156 269.21875 374.535156 268.941406 396.347656 211.066406 C 397.449219 208.414062 401.207031 208.136719 401.207031 210.703125 C 401.207031 210.976562 401.207031 211.066406 379.394531 269.035156 C 379.027344 270.316406 377.835938 271.140625 376.460938 271.230469 Z M 376.460938 271.230469 " fill-opacity="1" fill-rule="nonzero"/><path fill="#efefef" d="M 317.074219 171.050781 L 347.132812 171.050781 C 348.964844 171.050781 350.523438 172.515625 350.523438 174.4375 L 350.523438 174.804688 C 350.523438 176.636719 349.058594 178.195312 347.132812 178.195312 L 317.074219 178.195312 C 315.238281 178.195312 313.679688 176.726562 313.679688 174.804688 L 313.679688 174.4375 C 313.773438 172.609375 315.238281 171.050781 317.074219 171.050781 Z M 317.074219 171.050781 " fill-opacity="1" fill-rule="nonzero"/></svg>